<svg xmlns="http://www.w3.org/2000/svg" width="119.055" height="119.055" viewBox="0 0 89.291 89.291"><path fill="#fff" fill-rule="evenodd" d="M0 89.293h89.293V0H0Zm0 0"/><path fill="#0a97d9" fill-rule="evenodd" d="M0 89.293h89.293V0H0Zm0 0"/><path fill="#fff" d="M11.633 7.512v17.996H8.605V11.734h-.023l-2.121 2.204H6.43v-3.16l2.789-3.266ZM15.297 20.227l2.71-7.41h.028v7.41Zm5.55 5.285V22.59h1.223v-2.363h-1.222V7.507h-2.973l-5.23 13.223v1.86h5.335v2.922ZM55.816 66.531a2.97 2.97 0 0 1-2.968-2.972 2.97 2.97 0 0 1 5.941.004 2.97 2.97 0 0 1-2.973 2.968m12.899-1.383c-1.121-1.52-8.38-10.77-18.559-10.77-8.84 0-18.289 8.017-18.289 8.017s-3.55-7.27-10.816-7.97c-.043 0-.09-.007-.137-.007h-.047c-.152.008-.293.156-.273.285q.03.147.113.27c.934 1.55 3.324 5.972 3.324 10.386 0 4.434-2.402 8.868-3.332 10.418l-.062.098a.289.289 0 0 0 .223.438l.078-.008c.027.004.05 0 .078-.004 7.285-.68 10.851-7.973 10.851-7.973s9.453 8.016 18.29 8.016c10.179 0 17.437-9.254 18.558-10.77l.078-.101a.28.28 0 0 0 0-.223 1 1 0 0 0-.078-.105M20.82 36.98l-.054-.011a.293.293 0 0 0-.293.297v2.023c0 .078.03.156.086.207 4.91 4.27 9.562.27 10.64-.785a.3.3 0 0 1 .074-.082.3.3 0 0 1 .165-.055.3.3 0 0 1 .199.078q0 .011.011.016c5.551 5.293 11.368 1.004 12.579 0l.12-.11a.25.25 0 0 1 .11-.023.25.25 0 0 1 .117.024l.117.109c1.211 1.004 7.032 5.293 12.579 0q.005-.011.011-.016a.28.28 0 0 1 .196-.078q.087.004.164.055.047.032.078.082c1.078 1.055 5.722 5.055 10.64.785a.27.27 0 0 0 .082-.207v-2.023a.286.286 0 0 0-.28-.297h-.005l-.062.011c-.047.028-.09.051-.149.079-1.511.757-6.195 2.558-10.445-1.47q-.062-.051-.125-.116a.3.3 0 0 0-.125-.028 1 1 0 0 0-.09.016.35.35 0 0 0-.148.113c-1.266.965-7.086 4.906-12.266.074l-.078-.074a.32.32 0 0 0-.211-.09.3.3 0 0 0-.203.09l-.078.074c-5.18 4.832-11.004.891-12.27-.074a.3.3 0 0 0-.144-.113 1 1 0 0 0-.09-.016.4.4 0 0 0-.121.028 1 1 0 0 1-.125.117c-4.254 4.027-8.938 2.226-10.446 1.469-.054-.028-.105-.051-.152-.079M31.2 46.082a.3.3 0 0 1 .077-.082.33.33 0 0 1 .16-.055c.075 0 .145.032.2.082 0 .004.008.008.011.012 5.547 5.29 11.368 1.004 12.579 0l.12-.113a.25.25 0 0 1 .11-.016.3.3 0 0 1 .117.016l.117.113c1.211 1.004 7.028 5.29 12.579 0 0 0 .007-.008.007-.012a.3.3 0 0 1 .2-.082.33.33 0 0 1 .16.055q.052.034.082.082c1.074 1.059 5.722 5.059 10.64.785a.3.3 0 0 0 .09-.203V44.63a.29.29 0 0 0-.289-.29l-.066.013-.145.074c-1.511.758-6.199 2.554-10.449-1.465l-.121-.117a.3.3 0 0 0-.125-.032.2.2 0 0 0-.09.024.24.24 0 0 0-.148.11c-1.266.964-7.086 4.906-12.27.074l-.074-.079a.32.32 0 0 0-.211-.082.3.3 0 0 0-.203.082l-.078.079c-5.18 4.832-11.004.89-12.27-.075a.25.25 0 0 0-.144-.11.4.4 0 0 0-.09-.023.25.25 0 0 0-.121.032c-.04.043-.086.078-.13.117-4.25 4.016-8.937 2.223-10.445 1.465l-.148-.074-.055-.012a.29.29 0 0 0-.293.289v2.035a.26.26 0 0 0 .086.203c4.91 4.274 9.563.266 10.637-.785M29.293 10.582h.52c.21 0 .378-.035.496-.102a.52.52 0 0 0 .234-.328q.063-.22.062-.57.001-.33-.05-.555a.57.57 0 0 0-.22-.347q-.166-.124-.534-.125h-.508Zm-1.473 4.172V7.52h2.293q.652 0 1.063.246.415.247.613.71.2.464.2 1.126 0 .773-.262 1.214-.263.435-.72.618a2.7 2.7 0 0 1-1.046.187h-.668v3.133ZM34.168 10.602h.43q.357 0 .562-.118a.65.65 0 0 0 .29-.351q.086-.24.085-.586 0-.498-.183-.762-.184-.264-.684-.265h-.5Zm-1.473 4.152V7.52h1.875q.733 0 1.254.164.522.17.805.586.28.421.281 1.16 0 .448-.078.793a1.5 1.5 0 0 1-.266.597 1.34 1.34 0 0 1-.543.407l1.004 3.527h-1.511l-.828-3.277h-.52v3.277ZM39.863 13.79q.288 0 .422-.13a.66.66 0 0 0 .18-.348q.042-.222.043-.468V9.422c0-.168-.016-.32-.043-.465a.66.66 0 0 0-.18-.344q-.135-.129-.422-.129-.263 0-.398.13a.64.64 0 0 0-.18.343 2.2 2.2 0 0 0-.047.465v3.422q.001.246.043.469a.65.65 0 0 0 .172.347q.135.13.41.13m0 1.062q-.793.001-1.258-.286a1.6 1.6 0 0 1-.664-.82c-.132-.351-.203-.777-.203-1.27V9.778q.002-.738.203-1.265.2-.529.664-.805.465-.277 1.258-.277c.54 0 .961.093 1.274.28q.467.283.672.806c.132.347.199.77.199 1.261v2.7c0 .492-.067.918-.2 1.27q-.204.532-.671.82c-.313.19-.735.285-1.274.285M43.613 14.754V8.617H42.5V7.52h3.695v1.097h-1.097v6.137ZM46.848 14.754V7.52H50v1.02h-1.68v1.917h1.293v1.027H48.32v2.27h1.696v1ZM52.605 14.86q-.732.001-1.16-.31-.426-.304-.613-.874a4.3 4.3 0 0 1-.18-1.317V9.941q0-.778.188-1.34t.656-.867q.468-.304 1.27-.304.78 0 1.23.261.45.257.645.73.198.475.199 1.126v.422h-1.438v-.512q0-.28-.035-.504a.6.6 0 0 0-.168-.344q-.127-.124-.414-.125-.294 0-.43.153a.76.76 0 0 0-.167.386 3.5 3.5 0 0 0-.036.504v3.207q0 .305.051.543c.04.16.106.29.203.375q.146.136.426.137.275 0 .426-.144a.75.75 0 0 0 .21-.387q.06-.247.06-.559v-.77h-.708v-.89h2.035v3.715h-.964l-.086-.652a1.33 1.33 0 0 1-.43.543c-.191.144-.445.214-.77.214M55.867 14.754V7.52h3.149v1.02H57.34v1.917h1.293v1.027H57.34v2.27h1.695v1ZM61.25 10.602h.43c.234 0 .425-.04.562-.118a.65.65 0 0 0 .29-.351q.086-.24.085-.586 0-.498-.183-.762-.187-.264-.684-.265h-.5Zm-1.473 4.152V7.52h1.875q.733 0 1.254.164.522.17.805.586.28.421.281 1.16 0 .448-.078.793a1.6 1.6 0 0 1-.266.597 1.34 1.34 0 0 1-.543.407l1 3.527h-1.507l-.832-3.277h-.516v3.277ZM68.625 12.262h.867l-.437-2.922Zm-1.793 2.492L68.23 7.52h1.637l1.39 7.234h-1.362l-.262-1.59h-1.14l-.278 1.59ZM28.848 25.469l-1.375-7.235h1.277l.855 5 .805-5h1.328l-1.375 7.235Zm0 0"/><path fill="#fff" fill-rule="evenodd" d="M32.5 25.469h1.46v-7.235H32.5Zm0 0"/><path fill="#fff" d="M36.543 24.441h.312q.412 0 .586-.128a.58.58 0 0 0 .22-.383q.044-.258.042-.633v-2.98c0-.25-.02-.454-.058-.602a.52.52 0 0 0-.23-.336q-.176-.11-.567-.11h-.305ZM35.07 25.47v-7.235h1.766q.921-.001 1.437.239.51.233.727.742c.14.336.215.765.215 1.289v2.633q-.002.803-.215 1.32a1.44 1.44 0 0 1-.719.766q-.504.246-1.406.246ZM41.543 22.977h.867l-.437-2.922Zm-1.793 2.492 1.402-7.235h1.633l1.39 7.235h-1.362l-.258-1.59H41.41l-.277 1.59ZM47.063 25.469l.124-7.235h1.563l.89 4.563.958-4.563h1.507l.13 7.235H51.16l-.117-4.903-.918 4.903h-.918l-.965-4.938-.101 4.938ZM54.73 22.977h.868l-.438-2.922Zm-1.792 2.492 1.402-7.235h1.633l1.394 7.235H56l-.258-1.59h-1.144l-.278 1.59ZM59.52 21.316h.425q.358 0 .563-.117a.63.63 0 0 0 .289-.351q.087-.24.086-.586 0-.498-.18-.762c-.125-.176-.351-.266-.687-.266h-.496Zm-1.477 4.153v-7.235h1.875q.732 0 1.254.164.525.17.805.586.28.422.28 1.16.001.45-.073.794-.076.339-.27.597a1.3 1.3 0 0 1-.539.406l1 3.528h-1.508l-.832-3.278h-.515v3.278Zm0 0"/><path fill="#fff" fill-rule="evenodd" d="M63.242 25.469h1.461v-7.235h-1.46Zm0 0"/><path fill="#fff" d="M65.813 25.469v-7.235h1.027l1.605 3.77v-3.77h1.215v7.235h-.98l-1.61-4v4ZM70.777 25.469v-7.235h1.473v2.977h1.277v-2.977H75v7.235h-1.473v-3.207H72.25v3.207ZM77.555 22.977h.867l-.438-2.922Zm-1.797 2.492 1.402-7.235h1.637l1.39 7.235H78.82l-.257-1.59h-1.141l-.277 1.59Zm0 0"/></svg>