<svg xmlns="http://www.w3.org/2000/svg" width="119.055" height="119.055" viewBox="0 0 89.291 89.291"><path fill="#fff" fill-rule="evenodd" d="M0 89.293h89.293V0H0Zm0 0"/><path fill="#dda63a" fill-rule="evenodd" d="M0 89.293h89.293V0H0Zm0 0"/><path fill="#fff" d="M16.7 23.02h-4.966v-.852c0-1.406.504-1.938 1.274-2.762l1.937-2.043c1.567-1.672 1.914-2.738 1.914-4.543v-1.75c0-2.578-1.25-3.8-3.957-3.8-2.652 0-4.011 1.41-4.011 3.93v2.179h2.765V11.12c0-1.086.528-1.41 1.168-1.41.582 0 1.086.242 1.086 1.36v1.484c0 1.488-.133 2.07-1.113 3.105l-1.695 1.809C9.453 19.223 8.84 20.39 8.84 22.168v3.32h7.86ZM36.887 75.875v1.258c0 .008-.004.015-.004.023 0 .012.004.02.004.031.015.313.27.56.582.567H52.25a.593.593 0 0 0 .582-.59v-1.43c8.293-2.718 14.504-9.437 15.871-17.629q.001-.029.008-.05.007-.043.008-.078a.594.594 0 0 0-.594-.598h-46.95a.597.597 0 0 0-.597.594v.004l.031.265c1.434 8.266 7.817 15.024 16.278 17.633M52.816 37.344c-.195.273-4.734 6.804.098 12.082 2.219 2.426 2.023 4.562 1.395 6.008h3.097c.625-2.133.367-4.805-2.144-7.555-3.559-3.89.047-9.149.101-9.23.426-.602.196-1.376-.504-1.735-.699-.36-1.613-.168-2.039.43M44.969 55.434h3.097c.625-2.133.368-4.809-2.148-7.555-3.559-3.89.043-9.149.102-9.234.421-.598.195-1.372-.504-1.73-.703-.364-1.614-.169-2.04.429-.195.273-4.734 6.804.102 12.086 2.215 2.422 2.024 4.558 1.39 6.004M34.137 37.344c-.2.273-4.735 6.804.097 12.082 2.22 2.426 2.024 4.566 1.395 6.008h3.098c.625-2.133.367-4.805-2.153-7.555-3.558-3.89.047-9.149.106-9.234.418-.598.195-1.372-.508-1.73-.703-.36-1.613-.169-2.035.429M25.676 14.754V7.52h3.152v1.02h-1.68v1.917h1.297v1.027h-1.297v2.27h1.7v1ZM31.063 10.602h.425q.358 0 .563-.118a.63.63 0 0 0 .289-.351q.087-.24.086-.586 0-.498-.18-.762c-.125-.176-.351-.265-.687-.265h-.497Zm-1.477 4.152V7.52h1.875q.732 0 1.254.164.525.17.805.586.28.421.28 1.16.001.448-.073.793-.076.339-.27.597a1.3 1.3 0 0 1-.539.407l1 3.527H32.41l-.832-3.277h-.515v3.277ZM36.238 10.602h.43q.358 0 .562-.118a.63.63 0 0 0 .29-.351q.086-.24.085-.586 0-.498-.183-.762-.18-.264-.684-.265h-.5Zm-1.472 4.152V7.52h1.875q.732 0 1.254.164.525.17.804.586.281.421.281 1.16.001.448-.074.793-.075.339-.27.597a1.35 1.35 0 0 1-.538.407l1 3.527H37.59l-.832-3.277h-.52v3.277ZM41.41 12.262h.863L41.84 9.34Zm-1.797 2.492 1.403-7.234h1.632l1.395 7.234h-1.367l-.258-1.59h-1.14L41 14.754ZM46.195 13.727h.313q.41 0 .586-.13a.58.58 0 0 0 .218-.382 4 4 0 0 0 .043-.633v-2.98q0-.377-.058-.606a.52.52 0 0 0-.23-.332q-.175-.11-.567-.11h-.305Zm-1.472 1.027V7.52h1.765q.922-.001 1.434.238.515.233.73.742.213.504.215 1.29v2.632q-.002.803-.215 1.32a1.44 1.44 0 0 1-.718.766c-.336.164-.809.246-1.41.246Zm0 0"/><path fill="#fff" fill-rule="evenodd" d="M49.855 14.754h1.465V7.52h-1.465Zm0 0"/><path fill="#fff" d="M54.438 14.852q-.804 0-1.274-.305a1.6 1.6 0 0 1-.656-.844 3.8 3.8 0 0 1-.188-1.254V9.852c0-.5.063-.934.188-1.293a1.55 1.55 0 0 1 .656-.832q.47-.295 1.273-.297.773 0 1.22.261c.292.172.503.414.624.73q.183.476.184 1.099v.609h-1.43v-.68q0-.252-.027-.469a.66.66 0 0 0-.145-.359q-.123-.136-.418-.137-.294-.001-.43.145a.7.7 0 0 0-.167.367q-.035.228-.035.504v3.29q0 .303.046.53.053.23.188.348.14.122.398.121.288 0 .407-.14a.66.66 0 0 0 .152-.372q.03-.229.031-.488v-.707h1.43v.598a3.2 3.2 0 0 1-.18 1.12 1.5 1.5 0 0 1-.617.77c-.29.188-.703.282-1.23.282M58.805 12.262h.863L59.23 9.34Zm-1.797 2.492L58.41 7.52h1.633l1.395 7.234H60.07l-.258-1.59h-1.144l-.277 1.59ZM63.59 10.602h.43q.357 0 .562-.118a.65.65 0 0 0 .29-.351q.083-.24.085-.586 0-.498-.184-.762-.186-.264-.683-.265h-.5Zm-1.473 4.152V7.52h1.875c.485 0 .906.054 1.254.164q.523.17.805.586.28.421.281 1.16 0 .448-.078.793-.075.339-.27.597a1.3 1.3 0 0 1-.539.407l1 3.527h-1.507l-.833-3.277h-.515v3.277ZM27.113 22.977h.867l-.437-2.922Zm-1.793 2.492 1.403-7.235h1.632l1.395 7.235h-1.367l-.258-1.59H26.98l-.277 1.59ZM32.66 25.469v-7.235h3.055v1h-1.582v1.957h1.34v1.028h-1.34v3.25ZM38.473 24.504q.285 0 .418-.129a.66.66 0 0 0 .18-.348q.044-.222.042-.468v-3.422c0-.168-.011-.32-.043-.465a.66.66 0 0 0-.18-.344c-.09-.086-.226-.129-.417-.129q-.269 0-.403.13a.66.66 0 0 0-.18.343 2.2 2.2 0 0 0-.042.465v3.422q-.001.246.039.468a.63.63 0 0 0 .175.348q.135.129.41.129m0 1.062q-.795.002-1.257-.285a1.6 1.6 0 0 1-.668-.82q-.2-.53-.2-1.27v-2.699q0-.738.2-1.265c.137-.352.355-.622.668-.805q.461-.277 1.258-.277.804 0 1.27.28.467.283.671.805.2.523.2 1.262v2.7q0 .74-.2 1.269-.205.533-.672.82-.464.287-1.27.285M41.57 25.469l.125-7.235h1.563l.89 4.563.957-4.563h1.508l.13 7.235h-1.075l-.117-4.903-.918 4.903h-.918l-.965-4.938-.102 4.938ZM47.723 25.469v-7.235h3.152v1.02h-1.68v1.918h1.293v1.027h-1.293v2.27h1.696v1Zm0 0"/></svg>