<svg xmlns="http://www.w3.org/2000/svg" xmlns:xlink="http://www.w3.org/1999/xlink" width="1122.52" height="113.385" viewBox="0 0 841.89 85.039"><defs><clipPath id="a"><path d="M9.246 0h823.18v83.148H9.246Zm0 0"/></clipPath><clipPath id="F"><path d="M742 11.125h.313v.742H742Zm0 0"/></clipPath><clipPath id="G"><path d="M744 11.125h1v.742h-1Zm0 0"/></clipPath><clipPath id="H"><path d="M746.27 11.125h.73v.742h-.73Zm0 0"/></clipPath><clipPath id="I"><path d="M748.246 11.125h.988v.742h-.988Zm0 0"/></clipPath><clipPath id="J"><path d="M750.223 11.125H752v.742h-1.777Zm0 0"/></clipPath><clipPath id="K"><path d="M752.203 11.125H754v.742h-1.797Zm0 0"/></clipPath><clipPath id="L"><path d="M755.168 11.125H756v.742h-.832Zm0 0"/></clipPath><clipPath id="M"><path d="M757.145 11.125H758v.742h-.855Zm0 0"/></clipPath><clipPath id="N"><path d="M759.125 11.125H760v.742h-.875Zm0 0"/></clipPath><clipPath id="O"><path d="M706.875 20H733v26.477h-26.125Zm0 0"/></clipPath><clipPath id="P"><path d="M791 20h27.324v26.477H791Zm0 0"/></clipPath><clipPath id="Q"><path d="M707 65.262h4v6.48h-4Zm0 0"/></clipPath><clipPath id="R"><path d="M711 65.262h5.605v6.48H711Zm0 0"/></clipPath><clipPath id="S"><path d="M717 65.262h1.582v6.48H717Zm0 0"/></clipPath><clipPath id="T"><path d="M719.57 65.262H723v6.48h-3.43Zm0 0"/></clipPath><clipPath id="U"><path d="M707 55.375h5.648v6.922H707Zm0 0"/></clipPath><clipPath id="V"><path d="M724 65h5.457v6.742H724Zm0 0"/></clipPath><clipPath id="W"><path d="M730 65.262h5.39v6.48H730Zm0 0"/></clipPath><clipPath id="X"><path d="M736 65.262h4v6.48h-4Zm0 0"/></clipPath><clipPath id="Y"><path d="M742.313 65.262h5.933v6.48h-5.933Zm0 0"/></clipPath><clipPath id="Z"><path d="M750.223 65.262h3.957v6.48h-3.957Zm0 0"/></clipPath><clipPath id="aa"><path d="M754.18 65.262h3.953v6.48h-3.953Zm0 0"/></clipPath><clipPath id="ab"><path d="M759 65.262h5v6.48h-5Zm0 0"/></clipPath><clipPath id="ac"><path d="M764.066 65.262H770v6.48h-5.934Zm0 0"/></clipPath><clipPath id="ad"><path d="M770 65h5.934v6.742H770Zm0 0"/></clipPath><clipPath id="ae"><path d="M777 65.262h6.844v6.48H777Zm0 0"/></clipPath><clipPath id="af"><path d="M784 65.262h3v6.48h-3Zm0 0"/></clipPath><clipPath id="ag"><path d="M787 65.262h6.73v6.48H787Zm0 0"/></clipPath><clipPath id="ah"><path d="M794 65.262h6v6.48h-6Zm0 0"/></clipPath><clipPath id="ai"><path d="M800 65.262h5v6.48h-5Zm0 0"/></clipPath><path id="b" d="M2.156-.937 5.703-4.36C7.11-5.703 7.422-6.58 7.422-7.547c0-1.719-1.344-2.766-3.453-2.766-1.594 0-2.89.532-3.703 1.454l.765.656c.688-.781 1.625-1.14 2.844-1.14 1.594 0 2.438.718 2.438 1.906 0 .703-.22 1.39-1.391 2.53L.578-.75V0h7.328v-.937Zm0 0"/><path id="c" d="M4.938.094c2.406 0 4.171-1.953 4.171-5.203 0-3.266-1.765-5.203-4.171-5.203C2.516-10.312.78-8.375.78-5.11.781-1.86 2.516.094 4.938.094m0-.969c-1.829 0-3.079-1.5-3.079-4.234s1.25-4.235 3.079-4.235C6.75-9.344 8-7.844 8-5.109 8-2.375 6.75-.875 4.938-.875m0 0"/><path id="d" d="M9.5 0h1.156L5.891-10.219H4.797L.03 0h1.14l1.267-2.734H8.25ZM2.828-3.61l2.516-5.5 2.5 5.5Zm0 0"/><path id="e" d="M9.25-10.219 5.234-1.344l-4-8.875H.047L4.672 0H5.75l4.625-10.219Zm0 0"/><path id="f" d="M8.313-3.844c0-2.312-1.594-3.906-3.797-3.906S.688-6.125.688-3.844 2.359.078 4.797.078c1.234 0 2.328-.437 3.031-1.265l-.594-.672c-.593.672-1.453 1.015-2.406 1.015-1.719 0-2.969-1.062-3.078-2.672h6.547c0-.125.015-.234.015-.328M4.515-6.859c1.53 0 2.656 1.062 2.78 2.562H1.75c.125-1.5 1.25-2.562 2.766-2.562m0 0"/><path id="g" d="M2.484-6.187v-1.5H1.47V0H2.53v-3.922c0-1.812 1-2.828 2.64-2.828.079 0 .173.016.25.016V-7.75c-1.437 0-2.437.547-2.937 1.563m0 0"/><path id="h" d="m7.016-7.687-2.953 6.53-2.938-6.53H.015l3.5 7.671-.343.75c-.438.954-.922 1.282-1.625 1.282a1.96 1.96 0 0 1-1.422-.578l-.5.765c.484.469 1.188.703 1.906.703 1.125 0 1.953-.484 2.61-1.984l3.922-8.61Zm0 0"/><path id="i" d="M1.703 0h6.938v-.937H2.797v-9.282H1.703Zm0 0"/><path id="j" d="M4.688.078c2.28 0 3.968-1.64 3.968-3.922S6.97-7.75 4.687-7.75c-2.296 0-4 1.625-4 3.906s1.704 3.922 4 3.922m0-.922c-1.672 0-2.922-1.203-2.922-3s1.25-3 2.922-3c1.656 0 2.906 1.203 2.906 3s-1.25 3-2.907 3m0 0"/><path id="k" d="M5.469-7.75c-1.36 0-2.407.547-2.985 1.484v-1.421H1.47V0H2.53v-4.031c0-1.75 1.063-2.782 2.75-2.782 1.485 0 2.344.844 2.344 2.454V0h1.063v-4.453c0-2.203-1.313-3.297-3.22-3.297m0 0"/><path id="l" d="M7.719-7.687v1.484C7.062-7.22 5.937-7.75 4.625-7.75 2.391-7.75.688-6.234.688-4.031S2.39-.297 4.624-.297c1.281 0 2.39-.5 3.047-1.484v.984c0 1.89-.906 2.781-2.89 2.781-1.204 0-2.344-.39-3.079-1.046l-.547.78c.828.766 2.235 1.188 3.657 1.188 2.593 0 3.921-1.203 3.921-3.843v-6.75Zm-3 6.468C3-1.219 1.766-2.359 1.766-4.03S3-6.844 4.719-6.844c1.734 0 2.984 1.14 2.984 2.813 0 1.672-1.25 2.812-2.984 2.812m0 0"/><path id="m" d="M4.219-7.75c-1.235 0-2.407.39-3.188 1.047l.469.766c.64-.547 1.594-.907 2.61-.907 1.468 0 2.218.719 2.218 2.032v.468H3.844c-2.25 0-3.031 1-3.031 2.188C.813-.828 1.906.078 3.688.078c1.296 0 2.218-.484 2.687-1.281V0h1.016v-4.766C7.39-6.75 6.25-7.75 4.219-7.75m-.375 7c-1.25 0-1.985-.547-1.985-1.437 0-.797.5-1.376 2.016-1.376h2.453v1.25C5.922-1.296 5.031-.75 3.844-.75m0 0"/><path id="n" d="M7.578-10.844v4.625c-.656-1-1.734-1.531-2.984-1.531C2.359-7.75.687-6.172.687-3.844S2.36.078 4.595.078c1.297 0 2.375-.562 3.015-1.594V0h1.016v-10.844Zm-2.89 10c-1.672 0-2.922-1.203-2.922-3s1.25-3 2.922-3c1.64 0 2.906 1.203 2.906 3s-1.266 3-2.907 3m0 0"/><path id="o" d="M1.703 0h1.094v-10.219H1.703Zm0 0"/><path id="p" d="M11.25-7.75c-1.406 0-2.531.64-3.094 1.625-.484-1.078-1.5-1.625-2.797-1.625-1.312 0-2.312.547-2.875 1.469v-1.407H1.47V0H2.53v-4.031c0-1.75 1.031-2.782 2.625-2.782 1.438 0 2.266.844 2.266 2.454V0h1.062v-4.031c0-1.75 1.016-2.782 2.625-2.782 1.407 0 2.25.844 2.25 2.454V0h1.063v-4.453c0-2.203-1.266-3.297-3.172-3.297m0 0"/><path id="q" d="M5.516-7.75c-1.297 0-2.391.563-3.032 1.578v-1.516H1.47V2.829H2.53v-4.281c.656 1 1.735 1.531 2.985 1.531C7.75.078 9.422-1.5 9.422-3.844c0-2.328-1.672-3.906-3.906-3.906M5.437-.844c-1.671 0-2.921-1.203-2.921-3 0-1.781 1.25-3 2.922-3 1.656 0 2.921 1.219 2.921 3 0 1.797-1.265 3-2.921 3m0 0"/><path id="r" d="M3.578.078c2.047 0 3.235-.86 3.235-2.203 0-2.937-5.079-1.375-5.079-3.453 0-.734.625-1.281 2.032-1.281.812 0 1.625.203 2.312.672l.469-.844C5.89-7.47 4.78-7.75 3.766-7.75 1.78-7.75.672-6.812.672-5.547c0 3.031 5.078 1.453 5.078 3.453 0 .766-.61 1.266-2.094 1.266-1.11 0-2.172-.39-2.797-.86l-.468.813c.64.531 1.89.953 3.187.953m0 0"/><path id="s" d="M2.016-9.36a.757.757 0 0 0 .765-.765c0-.39-.344-.719-.765-.719-.438 0-.782.344-.782.735 0 .406.344.75.782.75M1.469 0H2.53v-7.687H1.47Zm0 0"/><path id="t" d="m7.016-7.687-2.97 6.546-2.921-6.546H.015L3.486 0h1.093l3.484-7.687Zm0 0"/><path id="u" d="M3.719 0h1.11v-9.297H8.5v-.922H.063v.922h3.656Zm0 0"/><path id="v" d="M5.469-7.75c-1.328 0-2.36.516-2.938 1.406v-4.5H1.47V0H2.53v-4.031c0-1.75 1.063-2.782 2.75-2.782 1.485 0 2.344.844 2.344 2.454V0h1.063v-4.453c0-2.203-1.313-3.297-3.22-3.297m0 0"/><path id="w" d="M5.234-1.219c-.296.266-.734.407-1.171.407-.875 0-1.344-.5-1.344-1.407v-4.594h2.375v-.875H2.719v-1.671H1.656v1.672H.25v.875h1.406v4.656C1.656-.75 2.47.078 3.953.078c.61 0 1.235-.187 1.656-.547Zm0 0"/><path id="x" d="M1.469 0H2.53v-10.844H1.47Zm0 0"/><path id="y" d="M12.016-7.687 9.53-1.157l-2.515-6.53h-.907l-2.515 6.53-2.453-6.53H.125L3.078 0h.985l2.484-6.297L9.016 0h1l2.968-7.687Zm0 0"/><path id="z" d="M8.86-9.297v-.922H1.702V0h1.094v-4.344h5.406v-.937H2.797v-4.016Zm0 0"/><path id="A" d="M4.719.078c1.328 0 2.453-.531 3.078-1.531L7-1.97c-.531.766-1.36 1.125-2.281 1.125-1.703 0-2.953-1.187-2.953-3 0-1.797 1.25-3 2.953-3 .922 0 1.75.375 2.281 1.14l.797-.515C7.172-7.234 6.047-7.75 4.719-7.75 2.39-7.75.687-6.14.687-3.844S2.391.078 4.72.078m0 0"/><path id="B" d="M8.266-5.281c.968-.375 1.609-1.14 1.609-2.313 0-1.672-1.344-2.625-3.672-2.625h-4.5V0H6.5c2.61 0 3.922-1 3.922-2.734 0-1.391-.813-2.25-2.156-2.547M6.125-9.328c1.672 0 2.64.625 2.64 1.844 0 1.234-.968 1.859-2.64 1.859H2.797v-3.703Zm.36 8.437H2.796v-3.843h3.687c1.829 0 2.829.578 2.829 1.922s-1 1.921-2.829 1.921m0 0"/><path id="C" d="M7.547 0h1.297L5.172-4.547l3.36-3.14H7.218L2.53-3.484v-7.36H1.47V0H2.53v-2.187L4.375-3.86Zm0 0"/><path id="D" d="M2.813.094c2 0 3.046-1.078 3.046-3.235v-7.078H.953v.922h3.813v6.203c0 1.5-.657 2.25-1.938 2.25-.922 0-1.687-.437-2.25-1.265l-.656.734C.562-.437 1.64.094 2.812.094m0 0"/><path id="E" d="M1.703 0h4.25c3.328 0 5.578-2.11 5.578-5.11 0-3.015-2.25-5.109-5.578-5.109h-4.25Zm1.094-.937v-8.36H5.89c2.765 0 4.562 1.735 4.562 4.188S8.656-.937 5.891-.937Zm0 0"/></defs><g clip-path="url(#a)"><path fill="#fff" d="M9.246 0h823.18v83.148H9.246Zm0 0"/></g><use xlink:href="#b" x="24.347" y="47.251"/><use xlink:href="#c" x="32.812" y="47.251"/><use xlink:href="#c" x="42.679" y="47.251"/><use xlink:href="#c" x="52.545" y="47.251"/><use xlink:href="#d" x="172.403" y="36.935"/><use xlink:href="#e" x="187.947" y="36.935"/><use xlink:href="#f" x="197.546" y="36.935"/><use xlink:href="#g" x="206.548" y="36.935"/><use xlink:href="#h" x="212.733" y="36.935"/><use xlink:href="#i" x="225.685" y="36.935"/><use xlink:href="#j" x="234.359" y="36.935"/><use xlink:href="#k" x="243.704" y="36.935"/><use xlink:href="#l" x="253.794" y="36.935"/><use xlink:href="#m" x="268.877" y="36.935"/><use xlink:href="#k" x="277.67" y="36.935"/><use xlink:href="#n" x="287.76" y="36.935"/><use xlink:href="#o" x="302.739" y="36.935"/><use xlink:href="#p" x="307.24" y="36.935"/><use xlink:href="#q" x="323.053" y="36.935"/><use xlink:href="#g" x="333.158" y="36.935"/><use xlink:href="#f" x="338.956" y="36.935"/><use xlink:href="#r" x="347.958" y="36.935"/><use xlink:href="#r" x="355.246" y="36.935"/><use xlink:href="#s" x="362.534" y="36.935"/><use xlink:href="#t" x="366.543" y="36.935"/><use xlink:href="#f" x="374.398" y="36.935"/><use xlink:href="#u" x="388.243" y="36.935"/><use xlink:href="#v" x="396.798" y="36.935"/><use xlink:href="#f" x="406.888" y="36.935"/><use xlink:href="#r" x="415.891" y="36.935"/><use xlink:href="#s" x="423.179" y="36.935"/><use xlink:href="#r" x="427.188" y="36.935"/><use xlink:href="#u" x="190.898" y="58.203"/><use xlink:href="#s" x="199.453" y="58.203"/><use xlink:href="#w" x="203.462" y="58.203"/><use xlink:href="#x" x="209.513" y="58.203"/><use xlink:href="#f" x="213.523" y="58.203"/><use xlink:href="#y" x="227.383" y="58.203"/><use xlink:href="#s" x="240.484" y="58.203"/><use xlink:href="#w" x="244.493" y="58.203"/><use xlink:href="#v" x="250.544" y="58.203"/><use xlink:href="#m" x="265.508" y="58.203"/><use xlink:href="#z" x="279.175" y="58.203"/><use xlink:href="#j" x="288.356" y="58.203"/><use xlink:href="#g" x="297.701" y="58.203"/><use xlink:href="#A" x="303.484" y="58.203"/><use xlink:href="#f" x="311.74" y="58.203"/><use xlink:href="#n" x="320.742" y="58.203"/><use xlink:href="#i" x="335.706" y="58.203"/><use xlink:href="#s" x="344.485" y="58.203"/><use xlink:href="#k" x="348.494" y="58.203"/><use xlink:href="#f" x="358.584" y="58.203"/><use xlink:href="#B" x="372.445" y="58.203"/><use xlink:href="#g" x="383.682" y="58.203"/><use xlink:href="#f" x="389.48" y="58.203"/><use xlink:href="#m" x="398.259" y="58.203"/><use xlink:href="#C" x="407.052" y="58.203"/><use xlink:href="#D" x="574.88" y="47.251"/><use xlink:href="#j" x="582.347" y="47.251"/><use xlink:href="#v" x="591.691" y="47.251"/><use xlink:href="#k" x="601.781" y="47.251"/><use xlink:href="#E" x="616.73" y="47.251"/><use xlink:href="#j" x="629.041" y="47.251"/><use xlink:href="#f" x="638.386" y="47.251"/><g clip-path="url(#F)"><path fill="#0071bb" d="M742.21 11.445c.044 0 .071-.035.071-.074 0-.043-.027-.074-.07-.074a.074.074 0 0 0-.074.074c0 .04.035.074.074.074"/></g><g clip-path="url(#G)"><path fill="#0071bb" d="M744.41 11.52a.15.15 0 0 0 .149-.149.145.145 0 0 0-.149-.144.14.14 0 0 0-.144.144c0 .082.062.149.144.149"/></g><g clip-path="url(#H)"><path fill="#0071bb" d="M746.613 11.578c.11 0 .203-.094.203-.207a.205.205 0 0 0-.203-.207.207.207 0 1 0 0 .414"/></g><g clip-path="url(#I)"><path fill="#0071bb" d="M748.809 11.602a.23.23 0 0 0 .234-.23.23.23 0 0 0-.234-.231.23.23 0 0 0 0 .46"/></g><g clip-path="url(#J)"><path fill="#0071bb" d="M751.012 11.613a.24.24 0 0 0 .242-.242.242.242 0 1 0-.484 0c0 .137.105.242.242.242"/></g><g clip-path="url(#K)"><path fill="#0071bb" d="M753.21 11.598a.227.227 0 1 0 0-.454.227.227 0 0 0 0 .454"/></g><g clip-path="url(#L)"><path fill="#0071bb" d="M755.41 11.555a.183.183 0 1 0 0-.367.183.183 0 0 0 0 .367"/></g><g clip-path="url(#M)"><path fill="#0071bb" d="M757.61 11.492c.07 0 .124-.055.124-.12a.123.123 0 0 0-.125-.126.123.123 0 0 0-.12.125c0 .066.054.121.12.121"/></g><g clip-path="url(#N)"><path fill="#0071bb" d="M759.813 11.414c.023 0 .039-.02.039-.043s-.016-.043-.04-.043a.043.043 0 0 0-.042.043c0 .024.02.043.043.043"/></g><path fill="#0071bb" d="M737.809 13.633a.06.06 0 0 0 .062-.063.064.064 0 0 0-.062-.062.064.064 0 0 0-.063.062c0 .035.027.063.063.063M740.012 13.754c.097 0 .18-.086.18-.184a.183.183 0 0 0-.18-.183.187.187 0 0 0-.188.183.19.19 0 0 0 .188.184M742.21 13.852a.285.285 0 0 0 .282-.282.283.283 0 0 0-.281-.28.28.28 0 0 0-.281.28c0 .153.125.282.28.282M744.41 13.938a.367.367 0 0 0 .367-.368.363.363 0 0 0-.367-.363c-.2 0-.367.16-.367.363a.37.37 0 0 0 .367.367M746.613 13.996a.423.423 0 0 0 .422-.426.42.42 0 0 0-.422-.425.425.425 0 1 0 0 .852M748.809 14.023a.453.453 0 0 0 0-.906.453.453 0 0 0 0 .906M751.012 14.031a.463.463 0 1 0 0-.926.466.466 0 0 0-.465.465c0 .258.207.461.465.461M753.21 14.02a.448.448 0 0 0 0-.895.448.448 0 0 0 0 .895M755.41 13.98a.41.41 0 1 0 0-.82.41.41 0 0 0 0 .82M757.61 13.914a.347.347 0 0 0 .343-.344.34.34 0 0 0-.344-.34.34.34 0 0 0-.34.34c0 .188.153.344.34.344M759.813 13.828c.14 0 .253-.117.253-.258a.253.253 0 0 0-.254-.254.254.254 0 0 0-.257.254c0 .14.113.258.258.258M762.012 13.715a.144.144 0 0 0 .144-.145.15.15 0 0 0-.144-.148.145.145 0 0 0-.145.148c0 .082.063.145.145.145M764.21 13.582q.015 0 .017-.012c0-.004-.008-.011-.016-.011-.004 0-.012.007-.012.011 0 .008.008.012.012.012M735.613 15.875c.051 0 .098-.047.098-.105 0-.055-.047-.102-.098-.102a.104.104 0 0 0-.105.102c0 .058.047.105.105.105M737.809 16.027a.254.254 0 0 0 .254-.257c0-.141-.11-.254-.254-.254a.253.253 0 0 0-.254.254c0 .14.113.257.254.257M740.012 16.148a.38.38 0 1 0-.001-.758.38.38 0 0 0 0 .758M742.21 16.258a.488.488 0 1 0-.488-.488c0 .273.22.488.489.488M744.41 16.34a.568.568 0 1 0-.566-.57c0 .316.254.57.566.57M746.613 16.402a.631.631 0 0 0 0-1.261.632.632 0 0 0 0 1.262M748.809 16.434a.664.664 0 1 0 0-1.327.664.664 0 0 0 0 1.327M751.012 16.441c.37 0 .668-.3.668-.671a.67.67 0 0 0-.668-.672.672.672 0 1 0 0 1.343M753.21 16.422a.65.65 0 0 0 .653-.652c0-.36-.289-.653-.652-.653a.657.657 0 0 0-.656.653c0 .359.297.652.656.652M755.41 16.383a.61.61 0 1 0-.61-.613c0 .335.274.613.61.613M757.61 16.313a.543.543 0 1 0 .008-1.086.543.543 0 0 0-.009 1.085M759.813 16.223a.45.45 0 0 0 .449-.453c0-.25-.2-.45-.45-.45a.45.45 0 1 0 0 .903M762.012 16.11c.187 0 .34-.15.34-.34a.343.343 0 0 0-.34-.344.347.347 0 0 0-.344.344c0 .19.156.34.344.34M764.21 15.98a.207.207 0 0 0 .208-.21.205.205 0 1 0-.41 0c0 .117.09.21.203.21M766.41 15.824a.053.053 0 0 0 .055-.054c0-.032-.024-.051-.055-.051a.05.05 0 0 0-.05.05c0 .032.023.055.05.055M733.41 18.074a.105.105 0 0 0 .106-.105.104.104 0 0 0-.106-.102.104.104 0 0 0-.105.102c0 .058.047.105.105.105M735.613 18.25a.277.277 0 0 0 .278-.281.28.28 0 0 0-.278-.278.277.277 0 0 0-.281.278c0 .16.121.281.281.281M737.809 18.406a.436.436 0 0 0 0-.87.435.435 0 0 0 0 .871M740.012 18.531a.56.56 0 0 0 .558-.562.56.56 0 0 0-.558-.559.56.56 0 1 0 0 1.121M742.21 18.64a.669.669 0 1 0 0-1.34.665.665 0 0 0-.667.669c0 .37.297.672.668.672M744.41 18.723a.751.751 0 1 0-.002-1.502.751.751 0 0 0 .002 1.502M746.613 18.777c.446 0 .801-.359.801-.808a.804.804 0 1 0-1.61 0c0 .449.36.808.81.808M748.809 18.816a.848.848 0 1 0 .007-1.695.848.848 0 0 0-.007 1.695M751.012 18.828a.856.856 0 0 0 0-1.71.85.85 0 0 0-.852.85c0 .477.38.86.852.86M753.21 18.809a.838.838 0 0 0 0-1.676.837.837 0 0 0 0 1.676M755.41 18.766a.794.794 0 0 0 0-1.59.79.79 0 0 0-.789.793c0 .441.352.797.79.797M757.61 18.695a.728.728 0 0 0 0-1.453.727.727 0 0 0 0 1.453M759.813 18.605a.634.634 0 0 0 .632-.636.636.636 0 1 0-.633.637M762.012 18.48a.511.511 0 1 0 .001-1.021.511.511 0 0 0-.001 1.021M764.21 18.348a.38.38 0 0 0 .38-.38.376.376 0 0 0-.38-.374.375.375 0 0 0-.374.375c0 .207.168.379.375.379M766.41 18.195a.224.224 0 1 0 0-.449.223.223 0 0 0-.222.223c0 .129.101.226.222.226M768.61 18.016c.027 0 .046-.02.046-.047 0-.024-.02-.043-.047-.043a.043.043 0 0 0-.043.043c0 .027.02.047.043.047M731.207 20.11c-.031 0-.055.027-.055.062s.024.058.055.058c.035 0 .063-.023.063-.058a.06.06 0 0 0-.063-.063M733.41 20.426a.25.25 0 0 0 .254-.254.25.25 0 0 0-.254-.258.25.25 0 0 0-.254.258c0 .14.11.254.254.254M735.613 20.602a.43.43 0 0 0 0-.864.433.433 0 0 0-.437.434c0 .238.195.43.437.43M737.809 20.758a.588.588 0 1 0 0-1.176.585.585 0 0 0-.582.59c0 .324.257.586.582.586M740.012 20.89c.398 0 .718-.32.718-.718a.72.72 0 0 0-1.441 0 .72.72 0 0 0 .723.719M742.21 21a.83.83 0 0 0 0-1.66.83.83 0 0 0 0 1.66M744.41 21.078a.904.904 0 0 0 .906-.906.905.905 0 1 0-1.812 0c0 .5.406.906.906.906M746.613 21.148a.976.976 0 0 0 .973-.976.975.975 0 1 0-1.95 0c0 .539.434.976.977.976M748.809 21.184a1.013 1.013 0 1 0 .005-2.026 1.013 1.013 0 0 0-.005 2.026M751.012 21.195a1.024 1.024 0 1 0-.002-2.049 1.024 1.024 0 0 0 .002 2.05M753.21 21.172a1 1 0 1 0 .001-2.001 1 1 0 0 0 0 2M755.41 21.137a.964.964 0 1 0 .001-1.93.964.964 0 0 0 0 1.93M757.61 21.063a.89.89 0 0 0 .89-.891.891.891 0 1 0-1.781 0c0 .488.398.89.89.89M759.813 20.96a.792.792 0 0 0 0-1.581.794.794 0 0 0-.793.793c0 .433.355.789.793.789M762.012 20.848a.676.676 0 0 0 0-1.352c-.375 0-.68.3-.68.676a.68.68 0 0 0 .68.676M764.21 20.7a.528.528 0 1 0 0-1.06.534.534 0 0 0-.53.532c0 .293.242.527.53.527M766.262 20.504h.3a.366.366 0 1 0-.3 0M768.61 20.367a.2.2 0 0 0 .199-.195.2.2 0 0 0-.2-.2.196.196 0 0 0-.191.2c0 .105.086.195.191.195M733.41 22.75a.38.38 0 0 0 0-.758.38.38 0 0 0 0 .758M735.613 22.934a.56.56 0 0 0 .559-.563.56.56 0 0 0-.559-.562.56.56 0 0 0-.566.562c0 .313.25.563.566.563M737.809 23.09c.398 0 .718-.32.718-.719a.723.723 0 0 0-.718-.723.723.723 0 0 0-.72.723c0 .399.321.719.72.719M740.012 23.227a.854.854 0 1 0-.006-1.71.854.854 0 0 0 .006 1.71M742.21 23.34a.972.972 0 0 0 0-1.941.975.975 0 0 0-.972.972c0 .535.438.969.973.969M757.61 23.402a1.03 1.03 0 1 0 .001-2.06 1.03 1.03 0 0 0-.002 2.06M759.813 23.3a.93.93 0 0 0 .933-.929.934.934 0 0 0-.933-.933.937.937 0 0 0-.938.933c0 .516.422.93.938.93M762.012 23.176a.804.804 0 1 0 0-1.61.807.807 0 0 0-.809.805c0 .445.363.805.809.805M764.21 23.04a.67.67 0 0 0 .673-.669c0-.371-.301-.672-.672-.672s-.668.301-.668.672.297.668.668.668M766.41 22.879a.51.51 0 0 0 .5-.465l-.183-.434a.503.503 0 0 0-.82.39c0 .278.226.509.503.509M733.41 25.063c.27 0 .485-.223.485-.493a.485.485 0 1 0-.973 0c0 .27.219.492.488.492M735.613 25.242c.371 0 .668-.3.668-.672a.67.67 0 0 0-.668-.672.672.672 0 1 0 0 1.344M737.809 25.402a.833.833 0 0 0 0-1.664.832.832 0 0 0 0 1.664M740.012 25.54a.97.97 0 0 0 .968-.97.969.969 0 1 0-.969.969M762.012 25.496a.925.925 0 1 0 0-1.851.93.93 0 0 0-.93.925c0 .512.418.926.93.926M764.21 25.348c.43 0 .778-.348.778-.778a.774.774 0 0 0-.777-.773.776.776 0 0 0 0 1.55M766.41 25.18c.34 0 .613-.274.613-.61a.611.611 0 0 0-1.222 0c0 .336.273.61.61.61M733.41 27.34a.568.568 0 1 0-.566-.57c0 .316.254.57.566.57M735.613 27.52a.749.749 0 0 0 0-1.496.75.75 0 0 0-.754.746c0 .414.336.75.754.75M737.809 27.68a.911.911 0 0 0 0-1.82.91.91 0 0 0 0 1.82M762.012 27.785a1.013 1.013 0 1 0-.002-2.025 1.013 1.013 0 0 0 .002 2.025M764.21 27.633a.862.862 0 0 0 0-1.723.86.86 0 0 0-.858.86.86.86 0 0 0 .859.863M766.41 27.465a.694.694 0 1 0 .004-1.386.694.694 0 0 0-.004 1.386M768.61 27.277a.48.48 0 0 0 .296-.105l-.375-.89a.5.5 0 0 0-.426.488c0 .28.227.507.504.507M733.41 29.598a.628.628 0 1 0 0-1.254.628.628 0 1 0 0 1.254M735.613 29.777c.442 0 .801-.359.801-.808a.805.805 0 0 0-1.61 0c0 .449.36.808.81.808M737.809 29.945a.975.975 0 1 0 0-1.949.98.98 0 0 0-.977.973c0 .543.441.976.977.976M764.21 29.895a.926.926 0 1 0 0-1.852.93.93 0 0 0-.925.926c0 .515.414.926.926.926M766.41 29.723a.751.751 0 0 0 0-1.504.75.75 0 0 0-.746.75.75.75 0 0 0 .746.754M768.61 29.535a.563.563 0 0 0 0-1.125.563.563 0 0 0 0 1.125M733.41 31.836a.664.664 0 1 0 .001-1.327.664.664 0 0 0 0 1.327M735.613 32.02a.85.85 0 0 0 0-1.7.85.85 0 1 0 0 1.7M737.809 32.184a1.01 1.01 0 0 0 1.011-1.012c0-.563-.449-1.012-1.011-1.012a1.012 1.012 0 0 0 0 2.023M764.21 32.133a.964.964 0 1 0 .003-1.927.964.964 0 0 0-.002 1.927M766.41 31.95a.779.779 0 1 0-.777-.777c0 .432.347.776.777.776M768.61 31.762a.59.59 0 1 0 0-1.18.59.59 0 1 0 0 1.18M770.742 31.535l-.238-.57a.38.38 0 0 0-.07.207.37.37 0 0 0 .308.363M733.41 32.7a.672.672 0 1 0 0 1.344.672.672 0 0 0 0-1.345M735.613 32.516a.856.856 0 1 0-.006 1.712.856.856 0 0 0 .006-1.712M737.809 32.344a1.024 1.024 0 0 0 0 2.05 1.026 1.026 0 1 0 0-2.05"/><path fill="#0071bb" d="M760.98 35.18c-.101-.301-.312-.551-.593-.7.273-.14.488-.375.593-.664.16.36.497.614.899.664-.414.051-.754.325-.899.7m-.003-3.586c.144.351.46.61.843.676a1.13 1.13 0 0 0-.84.656 1.24 1.24 0 0 0-.585-.66c.27-.145.48-.383.582-.672m-2.211 7.996a1.2 1.2 0 0 0-.555-.676 1.26 1.26 0 0 0 .562-.578c.153.273.41.484.723.574a1.09 1.09 0 0 0-.73.68m.007-3.348c.13.2.317.363.54.461-.231.11-.418.285-.54.504a1.23 1.23 0 0 0-.43-.508c.177-.113.325-.27.43-.457m0-5.762a1.3 1.3 0 0 0-.398-.437c.164-.117.3-.277.398-.465.118.203.297.367.504.473-.199.097-.379.242-.504.43m-.363 1.789c.149-.11.274-.25.363-.407.118.168.274.305.454.403-.18.093-.34.23-.454.394a1.3 1.3 0 0 0-.363-.39m.363 1.808c.118.172.278.305.461.402a1.2 1.2 0 0 0-.46.418 1.5 1.5 0 0 0-.372-.418c.149-.101.278-.242.371-.402m-.003-6.851c.117.28.355.503.644.609-.27.094-.5.285-.64.527a1.27 1.27 0 0 0-.516-.531c.226-.14.41-.355.512-.605m-2.223 14.628a1.2 1.2 0 0 0-.57-.718c.25-.121.449-.317.578-.563.152.258.39.457.68.551-.333.121-.587.39-.688.73m.012-3.324c.12.16.273.293.453.383a1.3 1.3 0 0 0-.457.453 1.3 1.3 0 0 0-.387-.449c.16-.098.289-.234.39-.387m.008-10.355a1.4 1.4 0 0 0-.351-.352 1.4 1.4 0 0 0 .344-.39c.105.16.242.296.406.398q-.235.13-.399.344m0 8.238q.134.166.309.285a1.3 1.3 0 0 0-.312.313 1.5 1.5 0 0 0-.286-.305q.165-.13.29-.293m0-6.105a1.7 1.7 0 0 0-.258-.266c.093-.082.183-.172.257-.277q.123.162.282.277c-.106.074-.2.168-.282.266m-.214 1.957q.116-.106.214-.235c.075.09.153.168.246.239a1.2 1.2 0 0 0-.242.226 1.5 1.5 0 0 0-.218-.23m.218 1.98c.075.09.157.172.25.234a1.4 1.4 0 0 0-.254.25 1.5 1.5 0 0 0-.226-.246c.086-.066.164-.148.23-.238m-.02-9.223c.114.266.325.477.587.598a1.3 1.3 0 0 0-.578.488 1.34 1.34 0 0 0-.504-.496c.222-.14.394-.343.496-.59m-2.211-1.039a1.25 1.25 0 0 0-.617-.586c.308-.152.539-.437.613-.78.086.366.355.667.707.788-.3.098-.55.305-.703.578m0 2.004a1.3 1.3 0 0 0-.387-.375c.164-.117.297-.273.387-.453.105.188.254.34.43.453a1.4 1.4 0 0 0-.43.375m.004 12.649c.09.11.191.207.308.281-.12.09-.23.195-.312.32a1.3 1.3 0 0 0-.29-.312c.114-.078.216-.18.294-.29m0-10.57a1.2 1.2 0 0 0-.246-.246c.09-.078.175-.164.242-.265q.117.151.27.27a1.3 1.3 0 0 0-.266.241m.004 8.461c.062.067.125.125.199.18-.074.063-.14.125-.203.2a1.2 1.2 0 0 0-.176-.196 1.3 1.3 0 0 0 .18-.184m0-6.332a1 1 0 0 0-.153-.156c.059-.05.106-.105.149-.16.054.055.11.113.172.164a2 2 0 0 0-.168.152m-.102 2.07q.053-.058.102-.117.06.06.125.118c-.043.035-.086.066-.125.109a1 1 0 0 0-.102-.11m.102 2.102c.043.047.09.078.136.117q-.073.064-.136.13a1 1 0 0 0-.114-.13 1 1 0 0 0 .114-.117m-.008 7.305a1.23 1.23 0 0 0-.457-.54c.183-.105.344-.25.457-.429.129.188.305.336.508.434a1.2 1.2 0 0 0-.508.535m-2.219 2.566a1.12 1.12 0 0 0-.664-.894c.29-.11.523-.324.664-.598.145.281.399.496.703.598a1.09 1.09 0 0 0-.703.894m.004-3.476c.105.152.25.277.414.37a1.26 1.26 0 0 0-.418.466 1.3 1.3 0 0 0-.402-.465q.241-.145.406-.371m.004-14.832a1.5 1.5 0 0 0-.336-.325c.129-.101.242-.222.328-.367.094.149.207.274.348.375a1.3 1.3 0 0 0-.34.317m0 12.77q.104.13.238.226c-.094.074-.172.16-.242.258a1.5 1.5 0 0 0-.238-.254 1.5 1.5 0 0 0 .242-.23m0-10.696a2 2 0 0 0-.195-.184q.106-.095.195-.207.089.115.195.207-.106.083-.195.184m0 8.59q.058.065.129.117-.07.064-.13.129-.055-.062-.124-.13a1 1 0 0 0 .125-.116m.004-6.469q-.047-.047-.094-.09.045-.048.09-.098.046.054.094.102c-.028.027-.063.055-.09.086m-.035 2.137c.011-.012.02-.028.035-.043l.047.047-.043.035c-.016-.012-.028-.028-.04-.04m.04 2.18c.015.016.035.028.05.043a1 1 0 0 1-.058.063q-.023-.024-.047-.055a1 1 0 0 0 .055-.05m-.016-11.715c.098.293.305.535.574.671a1.3 1.3 0 0 0-.574.508 1.28 1.28 0 0 0-.558-.508c.265-.14.464-.382.558-.671m-2.215 21.453a1.1 1.1 0 0 0-.676-.84c.29-.106.532-.313.672-.586.145.27.375.48.66.59-.34.144-.59.457-.656.836m0-3.41c.106.148.242.27.395.363-.164.117-.301.273-.399.457a1.3 1.3 0 0 0-.398-.453c.156-.094.293-.215.402-.367m-.004-14.852a1.4 1.4 0 0 0-.336-.313q.206-.145.336-.363c.086.145.2.262.328.363a1.5 1.5 0 0 0-.328.313m0 12.793q.106.124.235.219-.13.106-.23.242a1.6 1.6 0 0 0-.235-.246q.127-.096.23-.215m0-10.715a1.1 1.1 0 0 0-.187-.176 1.3 1.3 0 0 0 .187-.199q.083.11.188.2-.105.076-.188.175m0 8.61c.035.039.075.07.114.105q-.06.06-.114.121c-.039-.039-.07-.082-.113-.121.04-.035.078-.066.113-.106m-.004-6.492c-.027-.027-.058-.05-.082-.074q.044-.046.086-.094c.028.032.051.063.078.09zm-.03 2.149q.014-.019.03-.032.011.013.028.032l-.028.02a.1.1 0 0 1-.03-.02m.03 2.195c.012.012.028.023.04.035l-.036.047q-.022-.026-.047-.05.025-.016.043-.032m.008-11.707c.098.277.297.512.555.648-.234.11-.426.282-.559.5a1.25 1.25 0 0 0-.558-.496c.261-.136.468-.37.562-.652m-2.218 1.207a1.25 1.25 0 0 0-.649-.55 1.11 1.11 0 0 0 .652-.743c.082.32.301.59.586.738-.25.114-.457.309-.59.555m-.003 2.004a1.35 1.35 0 0 0-.395-.348c.164-.11.3-.254.399-.43.09.169.214.313.367.422a1.3 1.3 0 0 0-.371.356m0 12.703q.112.152.265.262a1.3 1.3 0 0 0-.265.281 1.4 1.4 0 0 0-.282-.281c.11-.07.2-.16.282-.262m-.004-10.621a1.3 1.3 0 0 0-.239-.219q.136-.105.243-.246.093.136.222.242c-.086.063-.16.14-.226.223m0 8.512c.05.058.097.11.152.156a1.5 1.5 0 0 0-.148.164c-.051-.062-.11-.113-.168-.168q.087-.07.164-.152m0-6.387a1 1 0 0 0-.14-.129q.075-.065.14-.14c.043.046.078.097.125.14-.047.04-.082.082-.125.129m-.094 2.098c.031-.032.066-.059.094-.09.027.027.047.058.07.086q-.034.041-.074.078-.043-.035-.09-.074m.09 2.132c.031.032.054.063.09.09-.036.032-.059.067-.086.098-.032-.035-.067-.066-.102-.102.031-.027.067-.054.098-.086m.015 7.239a1.22 1.22 0 0 0-.472-.504c.183-.098.343-.23.465-.403.109.168.261.305.433.407-.183.125-.332.3-.426.5m-2.214.136a1.14 1.14 0 0 0-.61-.644c.25-.102.465-.281.602-.512.125.223.308.399.531.516-.242.144-.43.37-.523.64m-.016-3.199c.098.137.215.258.355.352-.144.11-.257.246-.347.398a1.3 1.3 0 0 0-.399-.406q.231-.13.39-.344m0-10.433a1.3 1.3 0 0 0-.335-.309q.209-.137.348-.344c.082.13.187.242.304.336a1.4 1.4 0 0 0-.316.317m-.004 8.312c.074.098.16.18.246.254-.086.078-.172.16-.242.262a1.3 1.3 0 0 0-.266-.266c.102-.07.184-.156.262-.25m0-6.187a1.6 1.6 0 0 0-.238-.223q.136-.107.242-.238.1.129.219.234-.118.105-.223.227m-.195 2c.074-.059.136-.121.195-.192q.081.104.18.192a1.1 1.1 0 0 0-.18.183 1 1 0 0 0-.195-.183m.195 2.03a2 2 0 0 0 .188.188 2 2 0 0 0-.188.203 1.4 1.4 0 0 0-.203-.203c.078-.054.14-.117.203-.187m.016-9.227c.097.223.257.41.46.543q-.283.166-.46.442a1.3 1.3 0 0 0-.524-.442c.23-.12.41-.308.524-.543m-2.223 1.16a1.17 1.17 0 0 0-.793-.609c.398-.094.711-.406.8-.805a1.2 1.2 0 0 0 .614.797c-.27.125-.492.348-.621.617m0 2.063c-.129-.2-.32-.363-.54-.461.231-.11.423-.297.54-.523.098.21.254.394.441.523-.18.117-.332.273-.441.461m0 8.02c.098.156.227.285.375.39a1.3 1.3 0 0 0-.375.43 1.2 1.2 0 0 0-.45-.43c.177-.094.337-.223.45-.39m-.008-5.899a1.3 1.3 0 0 0-.414-.367c.168-.098.317-.23.422-.399.09.157.21.286.352.395q-.212.151-.36.371m-.36 1.852c.141-.09.266-.203.36-.336.086.129.196.238.317.336-.121.09-.23.199-.317.328a1.2 1.2 0 0 0-.36-.328m.36 1.882q.135.198.328.336a1.5 1.5 0 0 0-.32.344 1.3 1.3 0 0 0-.375-.348c.145-.085.27-.195.367-.332m.016 5.352a1.16 1.16 0 0 0-.598-.59c.25-.097.453-.273.59-.496.117.207.293.387.5.504-.215.14-.39.34-.492.582m-2.211-2.098a1.1 1.1 0 0 0-.793-.703 1.17 1.17 0 0 0 .785-.613c.117.266.324.48.582.617-.273.152-.48.399-.574.7m-.656-5.133c.28-.098.511-.305.652-.567.105.235.277.426.492.563a1.3 1.3 0 0 0-.496.554 1.17 1.17 0 0 0-.648-.55m.648 1.652c.11.234.285.43.508.558a1.24 1.24 0 0 0-.508.579 1.17 1.17 0 0 0-.668-.579 1.18 1.18 0 0 0 .668-.558m.008-4.52c.101.274.297.5.547.645a1.3 1.3 0 0 0-.551.59 1.18 1.18 0 0 0-.734-.59c.332-.09.605-.328.738-.645m22.086 3.97c0-.556-.403-1.013-.93-1.102a1.12 1.12 0 0 0 .926-1.098 1.117 1.117 0 0 0-2.152-.422 1.24 1.24 0 0 0-.633-.7c.316-.16.55-.445.636-.792a1.073 1.073 0 1 0 0-.574 1.2 1.2 0 0 0-.765-.848 1.142 1.142 0 0 0-.403-2.207c-.468 0-.87.281-1.042.687a1.23 1.23 0 0 0-.684-.695c.398-.18.676-.574.68-1.039.004.574.468 1.04 1.047 1.04.578 0 1.05-.474 1.05-1.052a1.05 1.05 0 0 0-1.05-1.047c-.579 0-1.043.465-1.047 1.04a1.16 1.16 0 0 0-1.157-1.145 1.15 1.15 0 0 0-1.058.703 1.23 1.23 0 0 0-.774-.715c.43-.148.739-.554.739-1.035a1.104 1.104 0 0 0-2.18-.246 1.147 1.147 0 0 0-2.215-.113 1.17 1.17 0 0 0-1.11-.813 1.17 1.17 0 0 0-1.105.793 1.158 1.158 0 0 0-2.215.082 1.13 1.13 0 0 0-1.078-.828c-.62 0-1.125.504-1.125 1.125 0 .469.285.867.692 1.035-.317.117-.57.356-.707.664a1.17 1.17 0 0 0-.899-.66c.504-.078.89-.512.89-1.039 0-.582-.472-1.058-1.054-1.058s-1.055.476-1.055 1.058c0 .527.387.961.895 1.04-.492.066-.89.433-.992.917a1.07 1.07 0 0 0-1.047-.836 1.078 1.078 0 0 0-.246 2.13 1.17 1.17 0 0 0-.914.987 1.055 1.055 0 0 0-2.098.16 1.06 1.06 0 0 0 1.059 1.06c.523 0 .957-.388 1.039-.895.054.398.308.734.66.898-.309.137-.547.39-.664.707a1.13 1.13 0 0 0-1.035-.691c-.621 0-1.125.504-1.125 1.12 0 .52.351.95.828 1.079-.5.137-.871.582-.871 1.125 0 .508.328.937.789 1.098-.461.156-.797.59-.797 1.101 0 .52.344.957.816 1.11-.46.152-.797.581-.797 1.09 0 .55.391 1.011.91 1.128a1.102 1.102 0 1 0 1.282 1.442c.113.351.375.636.715.77a1.153 1.153 0 0 0 .441 2.214 1.045 1.045 0 0 0-1.039 1.047 1.048 1.048 0 1 0 1.055-1.047 1.15 1.15 0 0 0 1.039-.68c.129.313.379.555.695.684-.398.176-.68.574-.68 1.043a1.137 1.137 0 0 0 2.203.398 1.2 1.2 0 0 0 .848.774 1.074 1.074 0 1 0 1.363 1.031 1.07 1.07 0 0 0-.789-1.031c.348-.086.637-.324.793-.637.137.293.391.52.7.633a1.115 1.115 0 0 0 .418 2.148 1.11 1.11 0 0 0 1.097-.922 1.121 1.121 0 0 0 2.215-.062 1.103 1.103 0 0 0 2.195-.129c0-.477-.3-.875-.714-1.031a1.22 1.22 0 0 0 .738-.672c.164.348.488.601.879.664a1.054 1.054 0 0 0 .191 2.09 1.054 1.054 0 0 0 .195-2.09c.454-.074.82-.41.942-.848.137.461.558.801 1.062.801.618 0 1.121-.5 1.121-1.117 0-.484-.308-.89-.742-1.047.371-.121.657-.406.778-.777a1.111 1.111 0 1 0 1.363-1.437c.433-.126.77-.49.844-.946a1.055 1.055 0 1 0 0-.39 1.16 1.16 0 0 0-.66-.872c.316-.14.558-.41.667-.742a1.1 1.1 0 0 0 2.133-.39c0-.563-.426-1.024-.968-1.09.554-.063.988-.536.988-1.11"/><path fill="#0071bb" d="M764.21 32.398a.972.972 0 1 0 .974.973.975.975 0 0 0-.973-.973M766.41 32.578a.793.793 0 0 0 0 1.586.794.794 0 0 0 0-1.586M768.61 32.766a.603.603 0 0 0-.602.605.603.603 0 1 0 1.207 0 .604.604 0 0 0-.606-.605M770.813 32.98a.39.39 0 0 0-.391.391c0 .215.176.39.39.39s.391-.175.391-.39a.39.39 0 0 0-.39-.39M733.41 34.918a.654.654 0 0 0 0 1.305.654.654 0 0 0 0-1.305M735.613 34.738a.834.834 0 0 0-.84.832.837.837 0 1 0 .84-.832M737.809 34.57c-.551 0-1 .45-1 1a1 1 0 1 0 1-1M764.21 34.625a.946.946 0 1 0 .002 1.892.946.946 0 0 0-.001-1.892M766.41 34.797a.776.776 0 1 0 .005 1.55.776.776 0 0 0-.005-1.55M768.61 34.988a.584.584 0 0 0 0 1.168c.324 0 .59-.261.59-.586a.585.585 0 0 0-.59-.582M770.813 35.203a.367.367 0 1 0 0 .735.367.367 0 0 0 0-.735M733.41 37.16a.61.61 0 1 0 .002 1.225.61.61 0 0 0-.002-1.225M735.613 36.977a.795.795 0 0 0-.797.796c0 .438.356.79.797.79a.794.794 0 0 0 0-1.586M737.809 36.809c-.532 0-.961.43-.961.964 0 .532.43.961.96.961a.962.962 0 1 0 0-1.926M764.21 36.867a.904.904 0 1 0 .003 1.807.904.904 0 0 0-.002-1.807M766.41 37.035a.74.74 0 0 0 0 1.477.74.74 0 0 0 .738-.739.735.735 0 0 0-.738-.738M768.61 37.227a.544.544 0 0 0-.54.546.544.544 0 0 0 1.086 0c0-.3-.246-.546-.547-.546M770.813 37.445a.325.325 0 0 0-.329.328.328.328 0 1 0 .328-.328M773.008 37.668c-.055 0-.098.047-.098.105 0 .059.043.106.098.106a.105.105 0 0 0 .105-.106.105.105 0 0 0-.105-.105M733.41 39.43c-.3 0-.547.242-.547.539a.546.546 0 1 0 1.09 0 .54.54 0 0 0-.543-.54M735.613 39.246a.725.725 0 1 0 .723.723.73.73 0 0 0-.723-.723M737.809 39.082a.89.89 0 1 0 .007 1.782.89.89 0 0 0-.007-1.782M740.012 38.938c-.57 0-1.032.464-1.032 1.03 0 .575.461 1.032 1.032 1.032a1.03 1.03 0 1 0 0-2.062M762.012 38.988a.984.984 0 0 0 0 1.969c.543 0 .98-.441.98-.988 0-.54-.437-.98-.98-.98M764.21 39.137a.836.836 0 1 0 .001 1.672.836.836 0 0 0 0-1.672M766.41 39.3a.671.671 0 1 0 0 1.345.68.68 0 0 0 .676-.676.67.67 0 0 0-.676-.668M768.61 39.492a.48.48 0 1 0 0 .961.48.48 0 1 0 0-.96M770.813 39.695a.274.274 0 0 0-.274.274c0 .156.121.277.274.277a.275.275 0 0 0 0-.55M773.008 39.93a.04.04 0 0 0-.04.039c0 .023.02.043.04.043.027 0 .043-.02.043-.043 0-.024-.016-.04-.043-.04M733.41 41.719a.453.453 0 1 0 0 .907.453.453 0 0 0 0-.907M735.613 41.54a.637.637 0 0 0-.64.632.637.637 0 0 0 1.273 0 .633.633 0 0 0-.633-.633M737.809 41.379a.793.793 0 0 0 0 1.586.79.79 0 0 0 .793-.793.79.79 0 0 0-.793-.793M740.012 41.238a.934.934 0 1 0 0 1.867.933.933 0 0 0 0-1.867M759.813 41.16a1.01 1.01 0 0 0-1.012 1.012 1.012 1.012 0 1 0 1.012-1.012M762.012 41.281a.89.89 0 1 0-.001 1.78.89.89 0 0 0 0-1.78M764.21 41.426a.745.745 0 1 0 .007 1.49.745.745 0 0 0-.006-1.49M766.41 41.594a.577.577 0 0 0-.578.578.58.58 0 0 0 1.16 0 .58.58 0 0 0-.582-.578M768.61 41.781c-.212 0-.391.176-.391.39 0 .216.18.392.39.392a.395.395 0 0 0 .395-.391c0-.215-.18-.39-.395-.39M770.813 41.992a.18.18 0 0 0-.184.18c0 .101.082.18.183.18.102 0 .18-.079.18-.18a.177.177 0 0 0-.18-.18M733.41 44.031a.343.343 0 0 0 0 .684.34.34 0 0 0 .34-.34.34.34 0 0 0-.34-.344M735.613 43.86a.513.513 0 1 0-.006 1.025.513.513 0 0 0 .006-1.026M737.809 43.695a.677.677 0 1 0 .002 1.354.677.677 0 0 0-.002-1.354M740.012 43.566a.81.81 0 0 0-.809.809c0 .441.363.8.809.8a.8.8 0 0 0 .8-.8.8.8 0 0 0-.8-.809M742.21 43.441a.933.933 0 0 0-.929.934.928.928 0 0 0 1.855 0 .93.93 0 0 0-.925-.934M744.41 43.36a1.013 1.013 0 1 0 .002 2.025 1.013 1.013 0 0 0-.002-2.026M757.61 43.39a.982.982 0 1 0 .002 1.964.982.982 0 0 0-.003-1.963M759.813 43.48a.894.894 0 0 0-.895.895.893.893 0 0 0 1.785 0 .894.894 0 0 0-.89-.895M762.012 43.605a.768.768 0 0 0 0 1.535c.422 0 .77-.347.77-.769a.77.77 0 0 0-.77-.766M764.21 43.742a.63.63 0 0 0-.624.633.627.627 0 0 0 1.254 0 .63.63 0 0 0-.63-.633M766.41 43.91a.46.46 0 0 0-.46.465.462.462 0 0 0 .925 0 .46.46 0 0 0-.465-.465M768.61 44.094a.276.276 0 0 0-.274.281.275.275 0 0 0 .55 0 .277.277 0 0 0-.277-.281M770.813 44.3a.072.072 0 0 0-.075.075c0 .04.032.066.074.066.04 0 .075-.027.075-.066a.074.074 0 0 0-.074-.074M731.207 46.559c-.004 0-.012.004-.012.011 0 .008.008.012.012.012q.014 0 .016-.012c0-.008-.008-.011-.016-.011M733.41 46.363a.203.203 0 0 0-.207.207.207.207 0 1 0 .414 0 .203.203 0 0 0-.207-.207M735.613 46.191a.377.377 0 0 0-.379.38c0 .21.164.378.38.378a.376.376 0 0 0 .374-.379.38.38 0 0 0-.375-.379M737.809 46.043a.525.525 0 0 0-.528.527.53.53 0 0 0 .528.535.536.536 0 0 0 .535-.535.53.53 0 0 0-.535-.527M740.012 45.898a.672.672 0 1 0 0 1.344c.37 0 .668-.3.668-.672a.67.67 0 0 0-.668-.672M742.21 45.797a.776.776 0 0 0 0 1.55.776.776 0 0 0 0-1.55M744.41 45.71a.862.862 0 1 0 .005 1.725.862.862 0 0 0-.005-1.724M746.613 45.645a.93.93 0 0 0-.933.925.93.93 0 0 0 1.86 0 .93.93 0 0 0-.927-.925M748.809 45.61a.96.96 0 0 0-.961.96.965.965 0 0 0 1.93 0 .964.964 0 0 0-.97-.96M751.012 45.602a.969.969 0 1 0 0 1.937.969.969 0 0 0 0-1.937M753.21 45.625a.947.947 0 0 0 0 1.895.947.947 0 0 0 0-1.895M755.41 45.668a.905.905 0 0 0 0 1.809c.5 0 .906-.407.906-.907a.906.906 0 0 0-.906-.902M757.61 45.738a.836.836 0 1 0 0 1.672.836.836 0 0 0 0-1.672M759.813 45.824a.746.746 0 1 0 0 1.492c.41 0 .742-.332.742-.746a.75.75 0 0 0-.742-.746M762.012 45.941a.628.628 0 1 0 0 1.258.63.63 0 0 0 .625-.629.63.63 0 0 0-.625-.629M764.21 46.086a.488.488 0 1 0 0 .977c.27 0 .493-.223.493-.493a.49.49 0 0 0-.492-.484M766.41 46.246a.33.33 0 0 0-.324.324.323.323 0 1 0 .324-.324M768.61 46.426a.144.144 0 0 0-.145.144c0 .082.062.149.144.149a.15.15 0 0 0 .149-.149.15.15 0 0 0-.149-.144M733.41 48.719a.053.053 0 0 0-.055.054c0 .032.024.055.055.055a.053.053 0 0 0 .055-.055.053.053 0 0 0-.055-.054M735.613 48.547a.225.225 0 0 0-.23.226.227.227 0 0 0 .453 0 .223.223 0 0 0-.223-.226M737.809 48.406c-.2 0-.368.16-.368.367 0 .2.168.364.368.364a.366.366 0 1 0 0-.73M740.012 48.266a.507.507 0 1 0-.002 1.013.507.507 0 0 0 .002-1.013M742.21 48.164a.61.61 0 0 0-.612.61.61.61 0 1 0 .613-.61M744.41 48.078a.694.694 0 1 0 .695.695.694.694 0 0 0-.695-.695M746.613 48.02a.752.752 0 1 0 0 1.503.747.747 0 0 0 .746-.75.75.75 0 0 0-.746-.753M748.809 47.992a.78.78 0 0 0-.778.781.78.78 0 1 0 .778-.78M751.012 47.977a.795.795 0 1 0-.004 1.59.795.795 0 0 0 .004-1.59M753.21 47.996a.776.776 0 1 0 .006 1.552.776.776 0 0 0-.005-1.552M755.41 48.035a.738.738 0 1 0-.001 1.478.738.738 0 0 0 .001-1.478M757.61 48.102a.671.671 0 1 0 .005 1.342.671.671 0 0 0-.006-1.342M759.813 48.195a.578.578 0 1 0 0 1.157c.32 0 .578-.258.578-.579a.577.577 0 0 0-.578-.578M762.012 48.309a.466.466 0 1 0 .002.927.466.466 0 0 0-.002-.927M764.21 48.45a.32.32 0 0 0-.32.323.323.323 0 1 0 .32-.324M766.41 48.605a.166.166 0 0 0-.164.168c0 .09.074.16.164.16s.168-.07.168-.16a.17.17 0 0 0-.168-.168M735.613 50.93q-.042 0-.043.043c0 .02.016.039.043.039.024 0 .043-.02.043-.04 0-.027-.02-.042-.043-.042M737.809 50.777a.193.193 0 0 0-.192.196c0 .105.086.195.192.195a.2.2 0 0 0 .199-.195c0-.11-.09-.196-.2-.196M740.012 50.652a.32.32 0 0 0-.324.32.323.323 0 1 0 .324-.32M742.21 50.547a.42.42 0 0 0-.425.426.427.427 0 1 0 .426-.426M744.41 50.465a.506.506 0 1 0 .004 1.012.506.506 0 0 0-.004-1.012M746.613 50.41a.563.563 0 1 0-.006 1.127.563.563 0 0 0 .006-1.127M748.809 50.379a.593.593 0 1 0 .006 1.19.593.593 0 0 0-.006-1.19M751.012 50.367a.606.606 0 0 0 0 1.211.605.605 0 0 0 0-1.21M753.21 50.387a.59.59 0 0 0-.585.586.585.585 0 1 0 .586-.586M755.41 50.43a.542.542 0 1 0 0 1.086.544.544 0 0 0 .543-.543c0-.301-.246-.543-.543-.543M757.61 50.492a.48.48 0 1 0 0 .961.481.481 0 1 0 0-.96M759.813 50.582a.39.39 0 1 0-.003.779.39.39 0 0 0 .003-.779M762.012 50.695a.275.275 0 1 0 0 .55.27.27 0 0 0 .273-.272.275.275 0 0 0-.273-.278M764.21 50.824a.147.147 0 0 0 0 .293.144.144 0 0 0 .145-.144.145.145 0 0 0-.144-.149M740.012 53.055a.115.115 0 0 0-.117.117c0 .066.05.117.117.117.062 0 .117-.05.117-.117a.12.12 0 0 0-.117-.117M742.21 52.96a.21.21 0 1 0 0 .423.21.21 0 1 0 0-.422M744.41 52.879a.293.293 0 1 0 0 .586.29.29 0 0 0 .293-.293.293.293 0 0 0-.293-.293M746.613 52.824a.35.35 0 0 0-.351.348c0 .195.156.348.351.348a.35.35 0 0 0 .348-.348.35.35 0 0 0-.348-.348M748.809 52.793a.378.378 0 0 0 0 .758.38.38 0 0 0 0-.758M751.012 52.781a.39.39 0 0 0-.39.39c0 .216.175.392.39.392a.39.39 0 0 0 .39-.391.39.39 0 0 0-.39-.39M753.21 52.805a.366.366 0 0 0-.362.367c0 .203.16.367.363.367a.367.367 0 1 0 0-.734M755.41 52.844a.328.328 0 1 0 0 .656.325.325 0 0 0 .328-.328.33.33 0 0 0-.328-.328M757.61 52.898a.274.274 0 0 0-.274.274c0 .152.121.273.273.273a.273.273 0 0 0 .278-.273.275.275 0 0 0-.278-.274M759.813 52.992a.18.18 0 0 0-.184.18.183.183 0 1 0 .367 0 .183.183 0 0 0-.183-.18M762.012 53.098c-.043 0-.07.03-.07.074 0 .039.027.074.07.074.039 0 .07-.035.07-.074 0-.043-.031-.074-.07-.074M744.41 55.3a.07.07 0 0 0-.074.075c0 .04.031.07.074.07.04 0 .074-.03.074-.07a.074.074 0 0 0-.074-.074M746.613 55.25a.123.123 0 0 0-.125.121c0 .07.055.121.125.121.067 0 .117-.05.117-.12a.12.12 0 0 0-.117-.122M748.809 55.219a.15.15 0 0 0-.149.152.15.15 0 0 0 .149.152.153.153 0 0 0 .156-.152.156.156 0 0 0-.156-.152M751.012 55.207a.163.163 0 0 0-.164.168c0 .09.07.16.164.16.09 0 .164-.07.164-.16a.166.166 0 0 0-.164-.168M753.21 55.227a.15.15 0 0 0-.148.144c0 .082.067.149.149.149a.145.145 0 0 0 .144-.149.144.144 0 0 0-.144-.144M755.41 55.27a.103.103 0 1 0 .004.207.103.103 0 0 0-.004-.207M757.61 55.328c-.024 0-.044.02-.044.047 0 .023.02.043.043.043.028 0 .047-.02.047-.043a.045.045 0 0 0-.047-.047"/><g clip-path="url(#O)"><path fill="#231f20" d="m713.578 30.531 12.39 15.774h6.669V20.504h-6.668v15.773l-12.39-15.773h-6.704v25.8h6.703Zm0 0"/></g><path fill="#231f20" d="m766.91 22.414 1.621 3.867.375.89 1.598 3.794.238.57 6.207 14.77h5.34l10.883-25.801h-7.29l-6.265 15.703-6.226-15.703h-7.29l.626 1.476Zm0 0"/><g clip-path="url(#P)"><path fill="#231f20" d="M808.5 20.504h-7.324l-9.82 25.8h7.152l6.328-18.167 6.406 18.168h7.078Zm0 0"/></g><g clip-path="url(#Q)"><path fill="#231f20" d="m709.46 67.879-.585-.246c-.43-.168-.64-.406-.64-.692 0-.207.081-.382.242-.515a.9.9 0 0 1 .613-.211c.203 0 .363.039.492.12.121.075.25.224.387.462l.722-.43c-.382-.656-.918-.988-1.593-.988-.5 0-.922.152-1.258.445q-.509.452-.508 1.11c0 .656.398 1.156 1.207 1.492l.566.238q.221.096.383.203c.106.07.196.14.258.223a.8.8 0 0 1 .149.262.9.9 0 0 1 .05.312c0 .29-.09.52-.273.707a.92.92 0 0 1-.692.277c-.347 0-.617-.125-.796-.378-.106-.133-.172-.372-.215-.715l-.903.195q.121.824.618 1.273c.328.309.75.457 1.265.457.535 0 .989-.175 1.352-.535q.54-.528.539-1.34 0-.602-.332-1.023-.328-.416-1.047-.703"/></g><g clip-path="url(#R)"><path fill="#231f20" d="M712.367 66.46a2.98 2.98 0 0 0-.746 2q.001 1.258.887 2.142a2.97 2.97 0 0 0 2.152.878c.563 0 1.094-.14 1.606-.43v-1.07a7 7 0 0 1-.414.317 2.6 2.6 0 0 1-.383.203q-.323.153-.793.152a2.07 2.07 0 0 1-1.531-.636c-.418-.422-.625-.946-.625-1.563 0-.625.207-1.156.625-1.582q.617-.656 1.527-.656c.55 0 1.078.219 1.594.648v-1.05a3 3 0 0 0-1.536-.434q-1.447 0-2.363 1.082"/></g><g clip-path="url(#S)"><path fill="#231f20" fill-rule="evenodd" d="M717.387 65.488h.89v5.883h-.89Zm0 0"/></g><g clip-path="url(#T)"><path fill="#231f20" d="M719.68 71.375h3.246v-.836h-2.356v-1.96h2.285v-.837h-2.285v-1.414h2.356v-.836h-3.246Zm0 0"/></g><path fill="#231f20" d="M757.863 57.27a2.1 2.1 0 0 1 1.555-.637q.92-.002 1.543.637c.418.43.629.953.629 1.582q.001.927-.637 1.574c-.422.43-.941.64-1.558.64-.575 0-1.07-.207-1.508-.629q-.652-.627-.653-1.601c0-.621.207-1.14.63-1.566m-.528 3.835c.605.532 1.285.793 2.047.793.855 0 1.59-.296 2.191-.89q.915-.884.914-2.149c0-.843-.3-1.562-.91-2.16a2.93 2.93 0 0 0-2.152-.898q-1.272 0-2.176.89-.909.891-.91 2.133 0 1.413.996 2.281M766.215 60.957h-1.727V55.91h-.886v5.883h2.613ZM770.063 58.836c0-.621.207-1.14.632-1.566a2.1 2.1 0 0 1 1.551-.637q.92-.002 1.547.637c.418.43.625.953.625 1.582q0 .927-.633 1.574c-.426.43-.945.64-1.562.64q-.853.002-1.508-.629c-.438-.417-.653-.953-.653-1.601m4.344 2.172c.61-.59.91-1.305.91-2.149q.002-1.264-.906-2.16a2.94 2.94 0 0 0-2.152-.898 3 3 0 0 0-2.18.89q-.909.891-.91 2.133-.001 1.413 1 2.281c.602.532 1.285.793 2.043.793.855 0 1.59-.296 2.195-.89M777.316 58.988h1.973v-.828h-1.973v-1.414h2.047v-.836h-2.933v5.88h.886Zm0 0"/><g clip-path="url(#U)"><path fill="#231f20" d="M707.43 55.508v6.285h.886v-4.121l4.29 4.476V55.91h-.887v4.086Zm0 0"/></g><path fill="#231f20" d="M718.39 60.426c-.425.43-.949.64-1.566.64-.57 0-1.07-.207-1.508-.629-.43-.417-.652-.953-.652-1.601 0-.621.215-1.14.633-1.566a2.1 2.1 0 0 1 1.555-.637c.609 0 1.128.21 1.543.637.418.43.628.953.628 1.582q0 .927-.632 1.574m.625-3.727c-.602-.597-1.317-.898-2.157-.898-.847 0-1.578.297-2.18.89q-.907.891-.906 2.133 0 1.413.997 2.281c.601.532 1.285.793 2.046.793q1.282 0 2.196-.89.907-.884.906-2.149c0-.843-.297-1.562-.902-2.16M721.074 55.91h-.976l2.582 6.324 2.636-6.324h-.972l-1.645 4.074ZM726.871 59.527l.914-1.996.875 1.996Zm.93-3.988-2.91 6.254h.957l.652-1.434h2.52l.617 1.434h.972ZM737.23 60.023c0-.402-.117-.746-.332-1.023-.222-.277-.574-.512-1.046-.707l-.586-.238c-.43-.18-.641-.407-.641-.692a.66.66 0 0 1 .242-.523.92.92 0 0 1 .613-.207q.3 0 .493.12c.12.075.25.224.386.458l.715-.426c-.383-.656-.91-.988-1.586-.988-.508 0-.922.148-1.261.45q-.509.442-.508 1.108-.001.981 1.21 1.493l.567.234q.222.094.379.2c.11.07.191.144.262.226a.8.8 0 0 1 .148.262c.035.097.047.199.047.316 0 .281-.09.52-.273.703a.92.92 0 0 1-.692.277c-.347 0-.617-.125-.797-.382q-.153-.197-.218-.715l-.895.199q.122.822.613 1.273.499.457 1.262.457c.543 0 .988-.18 1.356-.53.355-.36.542-.802.542-1.345M738.754 56.875a3 3 0 0 0-.742 2.004q.001 1.247.886 2.137.892.883 2.153.882a3.17 3.17 0 0 0 1.597-.433v-1.07a3 3 0 0 1-.414.312 2.4 2.4 0 0 1-.375.211 1.95 1.95 0 0 1-.797.148c-.601 0-1.117-.21-1.53-.636a2.14 2.14 0 0 1-.626-1.559q.002-.942.625-1.586a2.02 2.02 0 0 1 1.528-.652c.546 0 1.082.215 1.59.644v-1.054q-.735-.427-1.528-.426c-.973 0-1.754.36-2.367 1.078M747.348 58.21h-2.54v-2.3h-.886v5.883h.887v-2.75h2.539v2.75h.882V55.91h-.882ZM753.977 60.426c-.422.43-.946.64-1.563.64-.566 0-1.07-.207-1.504-.629q-.656-.627-.656-1.601c0-.621.215-1.14.633-1.566a2.1 2.1 0 0 1 1.55-.637q.926-.002 1.551.637c.414.43.625.953.625 1.582a2.17 2.17 0 0 1-.636 1.574m.628-3.727c-.601-.597-1.316-.898-2.156-.898-.851 0-1.574.297-2.18.89q-.907.891-.906 2.133c0 .942.328 1.703.996 2.281.606.532 1.286.793 2.043.793.86 0 1.59-.296 2.2-.89q.907-.884.906-2.149 0-1.264-.903-2.16"/><g clip-path="url(#V)"><path fill="#231f20" d="m728.379 69.578-4.29-4.484v6.281h.888v-4.117l4.289 4.469v-6.239h-.887Zm0 0"/></g><g clip-path="url(#W)"><path fill="#231f20" d="M731.176 66.46a3 3 0 0 0-.746 2c0 .84.3 1.552.89 2.142a2.95 2.95 0 0 0 2.153.878 3.2 3.2 0 0 0 1.601-.43v-1.07a5 5 0 0 1-.418.317 2.2 2.2 0 0 1-.379.203q-.323.153-.793.152a2.07 2.07 0 0 1-1.53-.636c-.419-.422-.626-.946-.626-1.563 0-.625.207-1.156.625-1.582a2.02 2.02 0 0 1 1.527-.656c.551 0 1.082.219 1.594.648v-1.05a3 3 0 0 0-1.531-.434c-.973 0-1.758.36-2.367 1.082"/></g><g clip-path="url(#X)"><path fill="#231f20" d="M736.203 71.375h3.246v-.836h-2.36v-1.96h2.29v-.837h-2.29v-1.414h2.36v-.836h-3.246Zm0 0"/></g><g clip-path="url(#Y)"><path fill="#231f20" d="M744.602 70.684a.91.91 0 0 1-.664-.29c-.2-.203-.297-.421-.297-.671a.73.73 0 0 1 .195-.48q.2-.23.746-.61l.047-.031 1.16 1.414c-.445.449-.84.668-1.187.668m-.094-4.403a.6.6 0 0 1 .406-.148q.264.001.422.144a.5.5 0 0 1 .152.38q-.001.204-.113.343-.053.075-.176.18-.125.103-.308.242l-.07.055a.4.4 0 0 1-.048-.055l-.218-.27q-.21-.25-.211-.511a.46.46 0 0 1 .164-.36m2.836 3.285a8 8 0 0 0 .281-.355l-.582-.594a8 8 0 0 1-.293.36 9 9 0 0 1-.324.367l-.035.039-1.055-1.281c.367-.286.629-.532.77-.739.144-.203.218-.437.218-.691q-.001-.55-.394-.914-.398-.358-1-.36-.632 0-1.024.372c-.261.25-.39.57-.39.968q0 .603.582 1.223l-.051.043c-.016.008-.024.016-.031.016l-.383.265q-.844.581-.844 1.461 0 .744.531 1.242c.364.336.809.5 1.325.5q.876 0 1.683-.832l.586.719h1.106l-1.09-1.348c.156-.172.297-.328.414-.46"/></g><g clip-path="url(#Z)"><path fill="#231f20" d="M750.52 66.328h1.351v5.047h.887v-5.047h1.347v-.836h-3.585Zm0 0"/></g><g clip-path="url(#aa)"><path fill="#231f20" d="M754.883 71.375h3.242v-.836h-2.355v-1.96h2.293v-.837h-2.293v-1.414h2.355v-.836h-3.242Zm0 0"/></g><g clip-path="url(#ab)"><path fill="#231f20" d="M759.75 66.46a3 3 0 0 0-.742 2c0 .84.293 1.552.887 2.142a2.96 2.96 0 0 0 2.152.878c.558 0 1.094-.14 1.598-.43v-1.07c-.141.122-.282.227-.41.317a3 3 0 0 1-.38.203 1.9 1.9 0 0 1-.796.152 2.06 2.06 0 0 1-1.528-.636c-.418-.422-.629-.946-.629-1.563 0-.625.211-1.156.63-1.582a2 2 0 0 1 1.523-.656c.55 0 1.078.219 1.59.648v-1.05q-.738-.434-1.528-.434-1.454 0-2.367 1.082"/></g><g clip-path="url(#ac)"><path fill="#231f20" d="M768.363 67.793h-2.539v-2.3h-.883v5.882h.883v-2.75h2.54v2.75h.886v-5.883h-.887Zm0 0"/></g><g clip-path="url(#ad)"><path fill="#231f20" d="m774.934 69.578-4.29-4.484v6.281h.887v-4.117l4.29 4.469v-6.239h-.887Zm0 0"/></g><g clip-path="url(#ae)"><path fill="#231f20" d="M781.617 70.012c-.422.425-.945.64-1.558.64-.57 0-1.07-.21-1.508-.632q-.652-.623-.653-1.602 0-.931.63-1.559.632-.645 1.554-.644.92 0 1.547.644c.414.422.625.95.625 1.575 0 .617-.211 1.148-.637 1.578m-1.527-4.63q-1.271 0-2.18.891c-.601.598-.906 1.309-.906 2.133q0 1.412.996 2.285.906.791 2.047.79 1.284-.001 2.2-.887a2.9 2.9 0 0 0 .905-2.153c0-.843-.3-1.558-.902-2.16-.605-.597-1.316-.898-2.16-.898"/></g><g clip-path="url(#af)"><path fill="#231f20" d="M785.152 65.492h-.886v5.887h2.613v-.84h-1.727Zm0 0"/></g><g clip-path="url(#ag)"><path fill="#231f20" d="M791.813 70.012q-.638.639-1.563.64c-.57 0-1.07-.21-1.508-.632q-.654-.623-.652-1.602-.002-.931.629-1.559.635-.645 1.55-.644c.618 0 1.13.215 1.547.644.418.422.63.95.63 1.575 0 .617-.212 1.148-.634 1.578m-1.535-4.63c-.843 0-1.57.298-2.172.891q-.914.897-.914 2.133-.001 1.412 1 2.285.907.791 2.047.79 1.286-.001 2.196-.887c.609-.586.906-1.309.906-2.153 0-.843-.297-1.558-.903-2.16a2.94 2.94 0 0 0-2.16-.898"/></g><g clip-path="url(#ah)"><path fill="#231f20" d="M797.484 69.145h1.465c-.043.414-.234.77-.582 1.066a1.77 1.77 0 0 1-1.18.445q-.768 0-1.425-.594c-.469-.421-.703-.964-.703-1.617 0-.632.21-1.164.632-1.582q.632-.649 1.563-.648c.695 0 1.277.32 1.766.965l.632-.606q-.556-.632-1.125-.914a3 3 0 0 0-1.289-.281q-1.284 0-2.176.894c-.601.598-.898 1.317-.898 2.172 0 .832.293 1.551.883 2.149q.878.89 2.113.89c.84 0 1.535-.304 2.078-.921.246-.274.414-.57.52-.887q.157-.505.156-1.168v-.2h-2.43Zm0 0"/></g><g clip-path="url(#ai)"><path fill="#231f20" d="m802.469 67.844-1.344-2.356h-1.02l1.922 3.344v2.543h.883v-2.543l1.926-3.344h-1.02Zm0 0"/></g></svg>