<?xml version="1.0" encoding="UTF-8"?>
<svg xmlns="http://www.w3.org/2000/svg" xmlns:xlink="http://www.w3.org/1999/xlink" width="1686.58pt" height="283.48pt" viewBox="0 0 1686.58 283.48">
<defs>
<clipPath id="clip-0">
<path clip-rule="nonzero" d="M 323 0 L 608 0 L 608 283.480469 L 323 283.480469 Z M 323 0 "/>
</clipPath>
<clipPath id="clip-1">
<path clip-rule="nonzero" d="M 0 0 L 284 0 L 284 283.480469 L 0 283.480469 Z M 0 0 "/>
</clipPath>
<clipPath id="clip-2">
<path clip-rule="nonzero" d="M 971 0 L 1256 0 L 1256 283.480469 L 971 283.480469 Z M 971 0 "/>
</clipPath>
<clipPath id="clip-3">
<path clip-rule="nonzero" d="M 647 0 L 932 0 L 932 283.480469 L 647 283.480469 Z M 647 0 "/>
</clipPath>
<clipPath id="clip-4">
<path clip-rule="nonzero" d="M 1655 90 L 1686.578125 90 L 1686.578125 123 L 1655 123 Z M 1655 90 "/>
</clipPath>
<clipPath id="clip-5">
<path clip-rule="nonzero" d="M 1336 238 L 1367 238 L 1367 283.480469 L 1336 283.480469 Z M 1336 238 "/>
</clipPath>
<clipPath id="clip-6">
<path clip-rule="nonzero" d="M 1376 251 L 1407 251 L 1407 283.480469 L 1376 283.480469 Z M 1376 251 "/>
</clipPath>
<clipPath id="clip-7">
<path clip-rule="nonzero" d="M 1431 238 L 1444 238 L 1444 283.480469 L 1431 283.480469 Z M 1431 238 "/>
</clipPath>
<clipPath id="clip-8">
<path clip-rule="nonzero" d="M 1452 241 L 1459 241 L 1459 283.480469 L 1452 283.480469 Z M 1452 241 "/>
</clipPath>
<clipPath id="clip-9">
<path clip-rule="nonzero" d="M 1466 251 L 1496 251 L 1496 283.480469 L 1466 283.480469 Z M 1466 251 "/>
</clipPath>
<clipPath id="clip-10">
<path clip-rule="nonzero" d="M 1504 238 L 1535 238 L 1535 283.480469 L 1504 283.480469 Z M 1504 238 "/>
</clipPath>
<clipPath id="clip-11">
<path clip-rule="nonzero" d="M 1543 251 L 1575 251 L 1575 283.480469 L 1543 283.480469 Z M 1543 251 "/>
</clipPath>
<clipPath id="clip-12">
<path clip-rule="nonzero" d="M 1582 251 L 1613 251 L 1613 283.480469 L 1582 283.480469 Z M 1582 251 "/>
</clipPath>
</defs>
<g clip-path="url(#clip-0)">
<path fill-rule="nonzero" fill="rgb(100%, 23.529053%, 15.686035%)" fill-opacity="1" d="M 587.179688 121.488281 L 364.460938 121.488281 L 364.460938 63.640625 L 387.601562 40.5 L 566.929688 40.5 L 566.929688 0 L 413.339844 0 C 410.660156 0 408.03125 0.53125 405.589844 1.539062 C 403.148438 2.550781 400.921875 4.03125 399.019531 5.929688 L 329.890625 75.058594 C 327.988281 76.960938 326.511719 79.199219 325.5 81.628906 C 324.488281 84.058594 323.960938 86.691406 323.960938 89.378906 L 323.960938 141.738281 C 323.960938 147.328125 326.230469 152.390625 329.890625 156.058594 C 333.550781 159.71875 338.621094 161.988281 344.210938 161.988281 L 566.929688 161.988281 L 566.929688 219.839844 L 543.789062 242.980469 L 323.960938 242.980469 L 323.960938 283.46875 L 518.050781 283.46875 C 520.730469 283.46875 523.359375 282.941406 525.800781 281.929688 C 528.230469 280.921875 530.46875 279.441406 532.371094 277.539062 L 601.5 208.410156 C 603.398438 206.511719 604.878906 204.269531 605.890625 201.839844 C 606.898438 199.410156 607.429688 196.78125 607.429688 194.089844 L 607.429688 141.738281 C 607.429688 136.148438 605.160156 131.089844 601.5 127.421875 C 597.839844 123.75 592.769531 121.488281 587.179688 121.488281 Z M 587.179688 121.488281 "/>
</g>
<g clip-path="url(#clip-1)">
<path fill-rule="nonzero" fill="rgb(100%, 23.529053%, 15.686035%)" fill-opacity="1" d="M 202.480469 242.96875 L 202.480469 89.378906 C 202.480469 86.699219 201.949219 84.070312 200.941406 81.628906 C 199.929688 79.191406 198.449219 76.960938 196.550781 75.058594 L 127.421875 5.929688 C 125.519531 4.03125 123.28125 2.550781 120.851562 1.539062 C 118.421875 0.53125 115.789062 0 113.101562 0 L 0 0 L 0 40.5 L 138.839844 40.5 L 161.980469 63.640625 L 161.980469 242.96875 L 0 242.96875 L 0 283.460938 L 283.460938 283.460938 L 283.460938 242.96875 Z M 202.480469 242.96875 "/>
</g>
<g clip-path="url(#clip-2)">
<path fill-rule="nonzero" fill="rgb(100%, 23.529053%, 15.686035%)" fill-opacity="1" d="M 1035.511719 242.96875 L 1012.371094 219.828125 L 1012.371094 0 L 971.878906 0 L 971.878906 194.089844 C 971.878906 196.769531 972.410156 199.398438 973.421875 201.839844 C 974.429688 204.269531 975.910156 206.511719 977.808594 208.410156 L 1046.941406 277.539062 C 1048.839844 279.441406 1051.078125 280.921875 1053.511719 281.929688 C 1055.941406 282.941406 1058.570312 283.46875 1061.261719 283.46875 L 1255.351562 283.46875 L 1255.351562 242.980469 L 1035.511719 242.980469 Z M 1035.511719 242.96875 "/>
</g>
<g clip-path="url(#clip-3)">
<path fill-rule="nonzero" fill="rgb(100%, 23.529053%, 15.686035%)" fill-opacity="1" d="M 864.679688 95.28125 L 836.050781 66.648438 L 688.421875 214.28125 L 688.421875 0 L 647.929688 0 L 647.929688 194.089844 C 647.929688 196.769531 648.460938 199.398438 649.46875 201.839844 C 650.480469 204.28125 651.960938 206.511719 653.859375 208.410156 L 722.988281 277.539062 C 724.890625 279.441406 727.128906 280.921875 729.558594 281.929688 C 731.988281 282.941406 734.621094 283.46875 737.308594 283.46875 L 931.398438 283.46875 L 931.398438 242.980469 L 717 242.980469 Z M 864.679688 95.28125 "/>
</g>
<path fill-rule="nonzero" fill="rgb(100%, 23.529053%, 15.686035%)" fill-opacity="1" d="M 1336.328125 0 L 1342.101562 0 L 1342.101562 5.769531 L 1336.328125 5.769531 Z M 1336.710938 9.621094 L 1341.710938 9.621094 L 1341.710938 41.679688 L 1336.710938 41.679688 Z M 1336.710938 9.621094 "/>
<path fill-rule="nonzero" fill="rgb(100%, 23.529053%, 15.686035%)" fill-opacity="1" d="M 1351.449219 9.621094 L 1355.441406 9.621094 L 1355.441406 12.511719 L 1356.53125 12.511719 L 1359.859375 9.621094 L 1374.609375 9.621094 L 1381.210938 16.21875 L 1381.210938 41.671875 L 1376.269531 41.671875 L 1376.328125 18.210938 L 1372.421875 14.230469 L 1361.261719 14.230469 L 1356.390625 18.328125 L 1356.449219 41.671875 L 1351.449219 41.671875 Z M 1351.449219 9.621094 "/>
<path fill-rule="nonzero" fill="rgb(100%, 23.529053%, 15.686035%)" fill-opacity="1" d="M 1390.058594 37.128906 L 1410.828125 37.128906 L 1413.519531 34.371094 L 1413.519531 30.398438 L 1410.828125 27.640625 L 1395.191406 27.640625 L 1389.738281 22.378906 L 1389.738281 15.011719 L 1395.128906 9.621094 L 1416.738281 9.621094 L 1416.871094 14.238281 L 1397.441406 14.238281 L 1394.679688 16.871094 L 1394.679688 20.398438 L 1397.371094 23.089844 L 1413.078125 23.089844 L 1418.398438 28.480469 L 1418.460938 36.300781 L 1413.140625 41.691406 L 1390.191406 41.691406 Z M 1390.058594 37.128906 "/>
<path fill-rule="nonzero" fill="rgb(100%, 23.529053%, 15.686035%)" fill-opacity="1" d="M 1429.230469 37.828125 L 1429.230469 14.171875 L 1422.820312 14.171875 L 1422.761719 9.621094 L 1429.171875 9.621094 L 1429.171875 1.289062 L 1434.171875 1.289062 L 1434.171875 9.621094 L 1446.03125 9.621094 L 1445.96875 14.171875 L 1434.109375 14.171875 L 1434.109375 35.839844 L 1435.328125 37.058594 L 1446.289062 37.058594 L 1446.289062 41.679688 L 1433.078125 41.679688 Z M 1429.230469 37.828125 "/>
<path fill-rule="nonzero" fill="rgb(100%, 23.529053%, 15.686035%)" fill-opacity="1" d="M 1452.5 0 L 1458.269531 0 L 1458.269531 5.769531 L 1452.5 5.769531 Z M 1452.878906 9.621094 L 1457.878906 9.621094 L 1457.878906 41.679688 L 1452.878906 41.679688 Z M 1452.878906 9.621094 "/>
<path fill-rule="nonzero" fill="rgb(100%, 23.529053%, 15.686035%)" fill-opacity="1" d="M 1470.261719 37.828125 L 1470.261719 14.171875 L 1463.851562 14.171875 L 1463.789062 9.621094 L 1470.199219 9.621094 L 1470.199219 1.289062 L 1475.199219 1.289062 L 1475.199219 9.621094 L 1487.058594 9.621094 L 1487 14.171875 L 1475.140625 14.171875 L 1475.140625 35.839844 L 1476.359375 37.058594 L 1487.320312 37.058594 L 1487.320312 41.679688 L 1474.109375 41.679688 Z M 1470.261719 37.828125 "/>
<path fill-rule="nonzero" fill="rgb(100%, 23.529053%, 15.686035%)" fill-opacity="1" d="M 1493.660156 35.011719 L 1493.660156 9.621094 L 1498.53125 9.621094 L 1498.53125 33.148438 L 1502.511719 37.058594 L 1512.578125 37.058594 L 1517.320312 32.960938 L 1517.320312 9.621094 L 1522.320312 9.621094 L 1522.320312 41.679688 L 1518.339844 41.679688 L 1518.28125 38.789062 L 1517.320312 38.789062 L 1513.921875 41.679688 L 1500.261719 41.679688 Z M 1493.660156 35.011719 "/>
<path fill-rule="nonzero" fill="rgb(100%, 23.529053%, 15.686035%)" fill-opacity="1" d="M 1534.691406 37.828125 L 1534.691406 14.171875 L 1528.28125 14.171875 L 1528.21875 9.621094 L 1534.628906 9.621094 L 1534.628906 1.289062 L 1539.628906 1.289062 L 1539.628906 9.621094 L 1551.488281 9.621094 L 1551.429688 14.171875 L 1539.570312 14.171875 L 1539.570312 35.839844 L 1540.789062 37.058594 L 1551.75 37.058594 L 1551.75 41.679688 L 1538.539062 41.679688 Z M 1534.691406 37.828125 "/>
<path fill-rule="nonzero" fill="rgb(100%, 23.529053%, 15.686035%)" fill-opacity="1" d="M 1557.769531 34.5 L 1557.769531 16.871094 L 1564.890625 9.628906 L 1582.261719 9.628906 L 1589.5 16.808594 L 1589.5 34.5 L 1582.261719 41.679688 L 1564.890625 41.679688 Z M 1580.078125 37.058594 L 1584.570312 32.570312 L 1584.570312 18.71875 L 1580.078125 14.230469 L 1567.128906 14.230469 L 1562.640625 18.648438 L 1562.640625 32.558594 L 1567.191406 37.050781 L 1580.078125 37.050781 Z M 1580.078125 37.058594 "/>
<path fill-rule="nonzero" fill="rgb(100%, 23.529053%, 15.686035%)" fill-opacity="1" d="M 1336.070312 117.71875 L 1356.839844 117.71875 L 1359.53125 114.960938 L 1359.53125 110.988281 L 1356.839844 108.230469 L 1341.199219 108.230469 L 1335.75 102.96875 L 1335.75 95.601562 L 1341.140625 90.210938 L 1362.75 90.210938 L 1362.878906 94.828125 L 1343.449219 94.828125 L 1340.691406 97.460938 L 1340.691406 100.988281 L 1343.378906 103.679688 L 1359.089844 103.679688 L 1364.410156 109.070312 L 1364.46875 116.890625 L 1359.148438 122.28125 L 1336.199219 122.28125 Z M 1336.070312 117.71875 "/>
<path fill-rule="nonzero" fill="rgb(100%, 23.529053%, 15.686035%)" fill-opacity="1" d="M 1372.359375 115.609375 L 1372.359375 90.21875 L 1377.230469 90.21875 L 1377.230469 113.75 L 1381.210938 117.660156 L 1391.28125 117.660156 L 1396.019531 113.558594 L 1396.019531 90.21875 L 1401.019531 90.21875 L 1401.019531 122.28125 L 1397.039062 122.28125 L 1396.980469 119.390625 L 1396.019531 119.390625 L 1392.621094 122.28125 L 1378.960938 122.28125 Z M 1372.359375 115.609375 "/>
<path fill-rule="nonzero" fill="rgb(100%, 23.529053%, 15.686035%)" fill-opacity="1" d="M 1410.761719 90.21875 L 1414.738281 90.21875 L 1414.800781 93.621094 L 1415.890625 93.621094 L 1419.929688 90.21875 L 1434.03125 90.21875 L 1441.148438 97.398438 L 1441.148438 115.089844 L 1434.03125 122.269531 L 1415.761719 122.269531 L 1415.761719 135.089844 L 1410.761719 135.089844 Z M 1431.730469 117.660156 L 1436.21875 113.171875 L 1436.21875 99.320312 L 1431.730469 94.828125 L 1421.28125 94.828125 L 1415.699219 99.511719 L 1415.699219 117.648438 L 1431.730469 117.648438 Z M 1431.730469 117.660156 "/>
<path fill-rule="nonzero" fill="rgb(100%, 23.529053%, 15.686035%)" fill-opacity="1" d="M 1449.679688 115.089844 L 1449.679688 97.460938 L 1456.800781 90.21875 L 1473.46875 90.21875 L 1480.648438 97.398438 L 1480.648438 108.941406 L 1454.558594 108.941406 L 1454.558594 113.171875 L 1459.050781 117.660156 L 1478.28125 117.660156 L 1478.28125 122.28125 L 1456.800781 122.28125 Z M 1475.769531 104.320312 L 1475.710938 99.320312 L 1471.21875 94.828125 L 1459.039062 94.828125 L 1454.550781 99.320312 L 1454.609375 104.320312 Z M 1475.769531 104.320312 "/>
<path fill-rule="nonzero" fill="rgb(100%, 23.529053%, 15.686035%)" fill-opacity="1" d="M 1489.039062 90.21875 L 1493.019531 90.21875 L 1493.078125 93.039062 L 1494.109375 93.039062 L 1497.320312 90.21875 L 1510.398438 90.21875 L 1510.398438 94.839844 L 1498.800781 94.839844 L 1493.988281 98.820312 L 1494.050781 122.28125 L 1489.050781 122.28125 L 1489.050781 90.21875 Z M 1489.039062 90.21875 "/>
<path fill-rule="nonzero" fill="rgb(100%, 23.529053%, 15.686035%)" fill-opacity="1" d="M 1514.5 80.601562 L 1520.269531 80.601562 L 1520.269531 86.371094 L 1514.5 86.371094 Z M 1514.878906 90.21875 L 1519.878906 90.21875 L 1519.878906 122.28125 L 1514.878906 122.28125 Z M 1514.878906 90.21875 "/>
<path fill-rule="nonzero" fill="rgb(100%, 23.529053%, 15.686035%)" fill-opacity="1" d="M 1529.050781 115.089844 L 1529.050781 97.460938 L 1536.171875 90.21875 L 1553.539062 90.21875 L 1560.78125 97.398438 L 1560.78125 115.089844 L 1553.539062 122.269531 L 1536.171875 122.269531 Z M 1551.359375 117.660156 L 1555.851562 113.171875 L 1555.851562 99.320312 L 1551.359375 94.828125 L 1538.410156 94.828125 L 1533.921875 99.25 L 1533.921875 113.160156 L 1538.46875 117.648438 L 1551.359375 117.648438 Z M 1551.359375 117.660156 "/>
<path fill-rule="nonzero" fill="rgb(100%, 23.529053%, 15.686035%)" fill-opacity="1" d="M 1569.949219 90.21875 L 1573.929688 90.21875 L 1573.988281 93.039062 L 1575.019531 93.039062 L 1578.230469 90.21875 L 1591.308594 90.21875 L 1591.308594 94.839844 L 1579.710938 94.839844 L 1574.898438 98.820312 L 1574.960938 122.28125 L 1569.960938 122.28125 L 1569.960938 90.21875 Z M 1569.949219 90.21875 "/>
<path fill-rule="nonzero" fill="rgb(100%, 23.529053%, 15.686035%)" fill-opacity="1" d="M 1615.730469 115.089844 L 1615.730469 97.460938 L 1622.851562 90.21875 L 1641.121094 90.21875 L 1641.121094 77.398438 L 1646.058594 77.398438 L 1646.058594 122.28125 L 1642.089844 122.28125 L 1642.089844 118.820312 L 1641 118.820312 L 1636.960938 122.28125 L 1622.859375 122.28125 Z M 1635.601562 117.660156 L 1641.109375 112.980469 L 1641.109375 94.839844 L 1625.078125 94.839844 L 1620.589844 99.261719 L 1620.589844 113.171875 L 1625.140625 117.660156 Z M 1635.601562 117.660156 "/>
<g clip-path="url(#clip-4)">
<path fill-rule="nonzero" fill="rgb(100%, 23.529053%, 15.686035%)" fill-opacity="1" d="M 1655.609375 115.089844 L 1655.609375 97.460938 L 1662.730469 90.21875 L 1679.398438 90.21875 L 1686.578125 97.398438 L 1686.578125 108.941406 L 1660.488281 108.941406 L 1660.488281 113.171875 L 1664.980469 117.660156 L 1684.210938 117.660156 L 1684.210938 122.28125 L 1662.730469 122.28125 Z M 1681.699219 104.320312 L 1681.640625 99.320312 L 1677.148438 94.828125 L 1664.96875 94.828125 L 1660.480469 99.320312 L 1660.539062 104.320312 Z M 1681.699219 104.320312 "/>
</g>
<path fill-rule="nonzero" fill="rgb(100%, 23.529053%, 15.686035%)" fill-opacity="1" d="M 1336.140625 195.691406 L 1336.140625 178.058594 L 1343.261719 170.820312 L 1359.929688 170.820312 L 1367.109375 178 L 1367.109375 189.539062 L 1341.019531 189.539062 L 1341.019531 193.769531 L 1345.511719 198.261719 L 1364.738281 198.261719 L 1364.738281 202.878906 L 1343.261719 202.878906 Z M 1362.230469 184.921875 L 1362.171875 179.921875 L 1357.679688 175.429688 L 1345.5 175.429688 L 1341.011719 179.921875 L 1341.070312 184.921875 Z M 1362.230469 184.921875 "/>
<path fill-rule="nonzero" fill="rgb(100%, 23.529053%, 15.686035%)" fill-opacity="1" d="M 1375.488281 170.820312 L 1379.480469 170.820312 L 1379.480469 173.710938 L 1380.570312 173.710938 L 1383.898438 170.820312 L 1398.648438 170.820312 L 1405.25 177.421875 L 1405.25 202.871094 L 1400.308594 202.871094 L 1400.371094 179.410156 L 1396.460938 175.429688 L 1385.300781 175.429688 L 1380.429688 179.53125 L 1380.488281 202.871094 L 1375.488281 202.871094 Z M 1375.488281 170.820312 "/>
<path fill-rule="nonzero" fill="rgb(100%, 23.529053%, 15.686035%)" fill-opacity="1" d="M 1416.53125 211.140625 L 1437.109375 211.140625 L 1439.550781 208.640625 L 1439.550781 200.238281 L 1438.589844 200.238281 L 1435.449219 202.871094 L 1421.28125 202.871094 L 1414.160156 195.691406 L 1414.160156 178.058594 L 1421.28125 170.820312 L 1444.488281 170.820312 L 1444.488281 210.511719 L 1439.300781 215.699219 L 1416.480469 215.699219 Z M 1434.039062 198.261719 L 1439.621094 193.578125 L 1439.558594 175.441406 L 1423.53125 175.441406 L 1419.039062 179.859375 L 1419.039062 193.769531 L 1423.589844 198.261719 Z M 1434.039062 198.261719 "/>
<path fill-rule="nonzero" fill="rgb(100%, 23.529053%, 15.686035%)" fill-opacity="1" d="M 1453.71875 195.691406 L 1453.71875 178.058594 L 1460.839844 170.820312 L 1477.511719 170.820312 L 1484.691406 178 L 1484.691406 189.539062 L 1458.601562 189.539062 L 1458.601562 193.769531 L 1463.089844 198.261719 L 1482.320312 198.261719 L 1482.320312 202.878906 L 1460.839844 202.878906 Z M 1479.808594 184.921875 L 1479.75 179.921875 L 1475.261719 175.429688 L 1463.078125 175.429688 L 1458.589844 179.921875 L 1458.648438 184.921875 Z M 1479.808594 184.921875 "/>
<path fill-rule="nonzero" fill="rgb(100%, 23.529053%, 15.686035%)" fill-opacity="1" d="M 1493.070312 170.820312 L 1497.058594 170.820312 L 1497.058594 173.710938 L 1498.148438 173.710938 L 1501.480469 170.820312 L 1516.230469 170.820312 L 1522.828125 177.421875 L 1522.828125 202.871094 L 1517.890625 202.871094 L 1517.949219 179.410156 L 1514.039062 175.429688 L 1502.878906 175.429688 L 1498.011719 179.53125 L 1498.070312 202.871094 L 1493.070312 202.871094 Z M 1493.070312 170.820312 "/>
<path fill-rule="nonzero" fill="rgb(100%, 23.529053%, 15.686035%)" fill-opacity="1" d="M 1532.691406 157.988281 L 1537.570312 157.988281 L 1537.570312 173.25 L 1538.660156 173.25 L 1541.480469 170.808594 L 1555.78125 170.808594 L 1562.378906 177.410156 L 1562.378906 202.859375 L 1557.441406 202.859375 L 1557.5 179.398438 L 1553.460938 175.421875 L 1542.820312 175.421875 L 1537.558594 179.839844 L 1537.558594 202.859375 L 1532.691406 202.859375 Z M 1532.691406 157.988281 "/>
<path fill-rule="nonzero" fill="rgb(100%, 23.529053%, 15.686035%)" fill-opacity="1" d="M 1570.339844 197.488281 L 1570.28125 188.898438 L 1576.238281 183 L 1594.960938 183 L 1595.019531 178.960938 L 1591.558594 175.371094 L 1574.378906 175.371094 L 1574.378906 170.820312 L 1593.679688 170.820312 L 1599.898438 177.039062 L 1599.898438 202.878906 L 1595.988281 202.878906 L 1595.988281 199.539062 L 1594.960938 199.539062 L 1590.921875 202.871094 L 1575.660156 202.871094 Z M 1589.441406 198.320312 L 1594.949219 193.640625 L 1594.949219 187.609375 L 1578.410156 187.609375 L 1575.199219 190.75 L 1575.261719 195.558594 L 1577.890625 198.320312 Z M 1589.441406 198.320312 "/>
<path fill-rule="nonzero" fill="rgb(100%, 23.529053%, 15.686035%)" fill-opacity="1" d="M 1609.378906 170.820312 L 1613.359375 170.820312 L 1613.421875 173.640625 L 1614.449219 173.640625 L 1617.660156 170.820312 L 1630.738281 170.820312 L 1630.738281 175.441406 L 1619.140625 175.441406 L 1614.328125 179.421875 L 1614.390625 202.878906 L 1609.390625 202.878906 L 1609.390625 170.820312 Z M 1609.378906 170.820312 "/>
<path fill-rule="nonzero" fill="rgb(100%, 23.529053%, 15.686035%)" fill-opacity="1" d="M 1634.828125 161.199219 L 1640.601562 161.199219 L 1640.601562 166.96875 L 1634.828125 166.96875 Z M 1635.21875 170.820312 L 1640.21875 170.820312 L 1640.21875 202.878906 L 1635.21875 202.878906 Z M 1635.21875 170.820312 "/>
<path fill-rule="nonzero" fill="rgb(100%, 23.529053%, 15.686035%)" fill-opacity="1" d="M 1648.429688 197.488281 L 1648.371094 188.898438 L 1654.328125 183 L 1673.050781 183 L 1673.109375 178.960938 L 1669.648438 175.371094 L 1652.46875 175.371094 L 1652.46875 170.820312 L 1671.769531 170.820312 L 1677.988281 177.039062 L 1677.988281 202.878906 L 1674.078125 202.878906 L 1674.078125 199.539062 L 1673.050781 199.539062 L 1669.011719 202.871094 L 1653.75 202.871094 Z M 1667.53125 198.320312 L 1673.039062 193.640625 L 1673.039062 187.609375 L 1656.5 187.609375 L 1653.289062 190.75 L 1653.351562 195.558594 L 1655.980469 198.320312 Z M 1667.53125 198.320312 "/>
<g clip-path="url(#clip-5)">
<path fill-rule="nonzero" fill="rgb(100%, 23.529053%, 15.686035%)" fill-opacity="1" d="M 1336.140625 276.289062 L 1336.140625 258.660156 L 1343.261719 251.421875 L 1361.53125 251.421875 L 1361.53125 238.601562 L 1366.46875 238.601562 L 1366.46875 283.480469 L 1362.5 283.480469 L 1362.5 280.019531 L 1361.410156 280.019531 L 1357.371094 283.480469 L 1343.269531 283.480469 Z M 1356.011719 278.851562 L 1361.519531 274.171875 L 1361.519531 256.03125 L 1345.488281 256.03125 L 1341 260.449219 L 1341 274.359375 L 1345.550781 278.851562 Z M 1356.011719 278.851562 "/>
</g>
<g clip-path="url(#clip-6)">
<path fill-rule="nonzero" fill="rgb(100%, 23.529053%, 15.686035%)" fill-opacity="1" d="M 1376.019531 276.289062 L 1376.019531 258.660156 L 1383.140625 251.421875 L 1399.808594 251.421875 L 1406.988281 258.601562 L 1406.988281 270.140625 L 1380.898438 270.140625 L 1380.898438 274.371094 L 1385.390625 278.859375 L 1404.621094 278.859375 L 1404.621094 283.480469 L 1383.140625 283.480469 Z M 1402.109375 265.519531 L 1402.050781 260.519531 L 1397.558594 256.03125 L 1385.378906 256.03125 L 1380.890625 260.519531 L 1380.949219 265.519531 Z M 1402.109375 265.519531 "/>
</g>
<g clip-path="url(#clip-7)">
<path fill-rule="nonzero" fill="rgb(100%, 23.529053%, 15.686035%)" fill-opacity="1" d="M 1438.199219 243.210938 L 1432.050781 243.210938 L 1431.921875 238.589844 L 1443.078125 238.589844 L 1443.078125 283.46875 L 1438.140625 283.46875 Z M 1438.199219 243.210938 "/>
</g>
<g clip-path="url(#clip-8)">
<path fill-rule="nonzero" fill="rgb(100%, 23.529053%, 15.686035%)" fill-opacity="1" d="M 1452.820312 241.800781 L 1458.589844 241.800781 L 1458.589844 247.570312 L 1452.820312 247.570312 Z M 1453.210938 251.410156 L 1458.210938 251.410156 L 1458.210938 283.46875 L 1453.210938 283.46875 Z M 1453.210938 251.410156 "/>
</g>
<g clip-path="url(#clip-9)">
<path fill-rule="nonzero" fill="rgb(100%, 23.529053%, 15.686035%)" fill-opacity="1" d="M 1467.308594 278.921875 L 1488.078125 278.921875 L 1490.769531 276.160156 L 1490.769531 272.191406 L 1488.078125 269.429688 L 1472.441406 269.429688 L 1466.988281 264.171875 L 1466.988281 256.800781 L 1472.378906 251.410156 L 1493.988281 251.410156 L 1494.121094 256.03125 L 1474.691406 256.03125 L 1471.929688 258.660156 L 1471.929688 262.191406 L 1474.621094 264.878906 L 1490.328125 264.878906 L 1495.648438 270.269531 L 1495.710938 278.089844 L 1490.390625 283.480469 L 1467.441406 283.480469 Z M 1467.308594 278.921875 "/>
</g>
<g clip-path="url(#clip-10)">
<path fill-rule="nonzero" fill="rgb(100%, 23.529053%, 15.686035%)" fill-opacity="1" d="M 1504.238281 238.589844 L 1509.109375 238.589844 L 1509.109375 254.109375 L 1510.199219 254.109375 L 1513.28125 251.421875 L 1527.390625 251.421875 L 1534.570312 258.601562 L 1534.511719 276.289062 L 1527.390625 283.46875 L 1504.25 283.46875 L 1504.25 238.589844 Z M 1525.140625 278.851562 L 1529.691406 274.359375 L 1529.628906 260.511719 L 1525.140625 256.019531 L 1514.691406 256.019531 L 1509.109375 260.699219 L 1509.171875 278.839844 L 1525.140625 278.839844 Z M 1525.140625 278.851562 "/>
</g>
<g clip-path="url(#clip-11)">
<path fill-rule="nonzero" fill="rgb(100%, 23.529053%, 15.686035%)" fill-opacity="1" d="M 1543.148438 276.289062 L 1543.148438 258.660156 L 1550.269531 251.421875 L 1567.640625 251.421875 L 1574.878906 258.601562 L 1574.878906 276.289062 L 1567.640625 283.46875 L 1550.269531 283.46875 Z M 1565.46875 278.851562 L 1569.960938 274.359375 L 1569.960938 260.511719 L 1565.46875 256.019531 L 1552.519531 256.019531 L 1548.03125 260.441406 L 1548.03125 274.351562 L 1552.578125 278.839844 L 1565.46875 278.839844 Z M 1565.46875 278.851562 "/>
</g>
<g clip-path="url(#clip-12)">
<path fill-rule="nonzero" fill="rgb(100%, 23.529053%, 15.686035%)" fill-opacity="1" d="M 1582.519531 278.078125 L 1582.460938 269.488281 L 1588.421875 263.589844 L 1607.140625 263.589844 L 1607.199219 259.550781 L 1603.738281 255.960938 L 1586.558594 255.960938 L 1586.558594 251.410156 L 1605.859375 251.410156 L 1612.078125 257.628906 L 1612.078125 283.46875 L 1608.171875 283.46875 L 1608.171875 280.140625 L 1607.140625 280.140625 L 1603.101562 283.46875 L 1587.839844 283.46875 Z M 1601.621094 278.921875 L 1607.128906 274.238281 L 1607.128906 268.210938 L 1590.589844 268.210938 L 1587.378906 271.351562 L 1587.441406 276.160156 L 1590.070312 278.921875 Z M 1601.621094 278.921875 "/>
</g>
</svg>
