<?xml version="1.0" encoding="UTF-8"?>
<svg xmlns="http://www.w3.org/2000/svg" xmlns:xlink="http://www.w3.org/1999/xlink" width="45.377249pt" height="45.378751pt" viewBox="0 0 45.377249 45.378751">
<path fill-rule="nonzero" fill="rgb(0%, 0%, 0%)" fill-opacity="1" d="M 28.355469 26.785156 C 27.09375 28.695312 24.953125 30.015625 22.503906 30.015625 C 18.589844 30.015625 15.734375 26.75 15.734375 22.703125 C 15.734375 18.625 18.589844 15.359375 22.503906 15.359375 C 24.917969 15.359375 26.957031 16.582031 28.214844 18.417969 L 32.265625 15.628906 C 30.222656 12.636719 26.6875 10.664062 22.503906 10.664062 C 15.800781 10.664062 10.730469 16.039062 10.730469 22.703125 C 10.730469 29.304688 15.800781 34.714844 22.503906 34.714844 C 26.753906 34.714844 30.324219 32.671875 32.367188 29.574219 Z M 8.207031 13.171875 L 9.308594 13.171875 L 9.308594 11.121094 L 10.984375 11.121094 L 10.984375 10.164062 L 9.308594 10.164062 L 9.308594 8.988281 L 11.429688 8.988281 L 11.429688 8.027344 L 8.207031 8.027344 Z M 8.207031 13.171875 "/>
<path fill-rule="nonzero" fill="rgb(0%, 0%, 0%)" fill-opacity="1" d="M 45.378906 0 L 0 0 L 0 45.378906 L 45.378906 45.378906 Z M 40.609375 40.609375 L 4.765625 40.609375 L 4.765625 4.765625 L 40.609375 4.765625 Z M 40.609375 40.609375 "/>
</svg>
